<svg xmlns="http://www.w3.org/2000/svg" viewBox="0 0 1024 1024">
<defs>
<linearGradient id="bg" x1="0" y1="0" x2="1" y2="1">
<stop offset="0" stop-color="#0f1f33"/>
<stop offset="1" stop-color="#08121f"/>
</linearGradient>
</defs>
<rect width="1024" height="1024" fill="url(#bg)"/>
<g transform="translate(338.68,115.00) scale(2.1664)" overflow="visible">
<g transform="translate(0,0)"><g><g><path d="M-7.229729729729733,16.03088803088803 L20.646718146718143,16.03088803088803 L20.646718146718143,37.36293436293437 L-7.229729729729733,37.36293436293437 Q-12.229729729729733,37.36293436293437 -12.229729729729733,32.36293436293437 L-12.229729729729733,21.03088803088803 Q-12.229729729729733,16.03088803088803 -7.229729729729733,16.03088803088803 Z" fill="#e2e8f0"></path><path d="M139.35328185328186,16.03088803088803 L167.22972972972974,16.03088803088803 Q172.22972972972974,16.03088803088803 172.22972972972974,21.03088803088803 L172.22972972972974,32.36293436293437 Q172.22972972972974,37.36293436293437 167.22972972972974,37.36293436293437 L139.35328185328186,37.36293436293437 Z" fill="#e2e8f0"></path><path d="M20.646718146718143,7 Q20.646718146718143,3 24.646718146718143,3 Q80,5 135.35328185328186,3 Q139.35328185328186,3 139.35328185328186,7 Q136.35328185328186,42 139.35328185328186,77 Q139.35328185328186,81 135.35328185328186,81 Q80,79 24.646718146718143,81 Q20.646718146718143,81 20.646718146718143,77 Q23.646718146718143,42 20.646718146718143,7 Z" fill="#e2e8f0" stroke="#64748b" stroke-width="1"></path><ellipse cx="39.46911196911197" cy="26.6969111969112" rx="10.28957528957529" ry="18.6969111969112" fill="none" stroke="#475569" stroke-width="1.5" opacity="0.6"></ellipse><ellipse cx="120.53088803088804" cy="26.6969111969112" rx="10.28957528957529" ry="18.6969111969112" fill="none" stroke="#475569" stroke-width="1.5" opacity="0.6"></ellipse></g></g></g>
<g transform="translate(0,99)"><g><g><path d="M-17.519305019305037,16.156370656370655 L17.635135135135123,16.156370656370655 L17.635135135135123,36.23359073359073 L-17.519305019305037,36.23359073359073 Q-22.519305019305037,36.23359073359073 -22.519305019305037,31.23359073359073 L-22.519305019305037,21.156370656370655 Q-22.519305019305037,16.156370656370655 -17.519305019305037,16.156370656370655 Z" fill="#e2e8f0"></path><path d="M142.36486486486487,16.156370656370655 L177.51930501930502,16.156370656370655 Q182.51930501930502,16.156370656370655 182.51930501930502,21.156370656370655 L182.51930501930502,31.23359073359073 Q182.51930501930502,36.23359073359073 177.51930501930502,36.23359073359073 L142.36486486486487,36.23359073359073 Z" fill="#e2e8f0"></path><path d="M17.635135135135123,7 Q17.635135135135123,3 21.635135135135123,3 Q80,5 138.36486486486487,3 Q142.36486486486487,3 142.36486486486487,7 Q139.36486486486487,40.5 142.36486486486487,74 Q142.36486486486487,78 138.36486486486487,78 Q80,76 21.635135135135123,78 Q17.635135135135123,78 17.635135135135123,74 Q20.635135135135123,40.5 17.635135135135123,7 Z" fill="#e2e8f0" stroke="#64748b" stroke-width="1"></path><ellipse cx="35.95559845559845" cy="26.194980694980696" rx="12.171814671814673" ry="18.194980694980696" fill="none" stroke="#475569" stroke-width="1.5" opacity="0.6"></ellipse><ellipse cx="124.04440154440155" cy="26.194980694980696" rx="12.171814671814673" ry="18.194980694980696" fill="none" stroke="#475569" stroke-width="1.5" opacity="0.6"></ellipse></g></g></g>
<g transform="translate(0,196.4)"><g><g><path d="M-12.12355212355213,15.152509652509652 L15,15.152509652509652 L15,36.48455598455599 L-12.12355212355213,36.48455598455599 Q-17.12355212355213,36.48455598455599 -17.12355212355213,31.48455598455599 L-17.12355212355213,20.15250965250965 Q-17.12355212355213,15.152509652509652 -12.12355212355213,15.152509652509652 Z" fill="#e2e8f0"></path><path d="M145,15.152509652509652 L172.12355212355214,15.152509652509652 Q177.12355212355214,15.152509652509652 177.12355212355214,20.15250965250965 L177.12355212355214,31.48455598455599 Q177.12355212355214,36.48455598455599 172.12355212355214,36.48455598455599 L145,36.48455598455599 Z" fill="#e2e8f0"></path><path d="M15,7 Q15,3 19,3 Q80,5 141,3 Q145,3 145,7 Q142,39.499999999999986 145,71.99999999999997 Q145,75.99999999999997 141,75.99999999999997 Q80,73.99999999999997 19,75.99999999999997 Q15,75.99999999999997 15,71.99999999999997 Q18,39.499999999999986 15,7 Z" fill="#e2e8f0" stroke="#64748b" stroke-width="1"></path><ellipse cx="30.8108108108108" cy="25.81853281853282" rx="14.430501930501933" ry="17.81853281853282" fill="none" stroke="#475569" stroke-width="1.5" opacity="0.6"></ellipse><ellipse cx="129.1891891891892" cy="25.81853281853282" rx="14.430501930501933" ry="17.81853281853282" fill="none" stroke="#475569" stroke-width="1.5" opacity="0.6"></ellipse></g></g></g>
<g transform="translate(0,292.5)"><g><g><path d="M-17.26833976833978,13.897683397683398 L17.38416988416988,13.897683397683398 L17.38416988416988,38.99420849420849 L-17.26833976833978,38.99420849420849 Q-22.26833976833978,38.99420849420849 -22.26833976833978,33.99420849420849 L-22.26833976833978,18.897683397683398 Q-22.26833976833978,13.897683397683398 -17.26833976833978,13.897683397683398 Z" fill="#e2e8f0"></path><path d="M142.61583011583014,13.897683397683398 L177.26833976833979,13.897683397683398 Q182.26833976833979,13.897683397683398 182.26833976833979,18.897683397683398 L182.26833976833979,33.99420849420849 Q182.26833976833979,38.99420849420849 177.26833976833979,38.99420849420849 L142.61583011583014,38.99420849420849 Z" fill="#e2e8f0"></path><path d="M17.38416988416988,7 Q17.38416988416988,3 21.38416988416988,3 Q80,5 138.61583011583014,3 Q142.61583011583014,3 142.61583011583014,7 Q139.61583011583014,37 142.61583011583014,67 Q142.61583011583014,71 138.61583011583014,71 Q80,69 21.38416988416988,71 Q17.38416988416988,71 17.38416988416988,67 Q20.38416988416988,37 17.38416988416988,7 Z" fill="#e2e8f0" stroke="#64748b" stroke-width="1"></path><ellipse cx="17.88610038610038" cy="26.445945945945947" rx="18.320463320463322" ry="18.445945945945947" fill="none" stroke="#475569" stroke-width="1.5" opacity="0.6"></ellipse><ellipse cx="142.1138996138996" cy="26.445945945945947" rx="18.320463320463322" ry="18.445945945945947" fill="none" stroke="#475569" stroke-width="1.5" opacity="0.6"></ellipse></g></g></g>

<path d="M36.5,115.3 L36.0,125.2 L30.8,222.2 L17.9,318.9 L16.6,328.8" fill="none" stroke="#4a0a0e" stroke-width="10.5" stroke-linecap="round" stroke-linejoin="round"/><path d="M123.5,115.3 L124.0,125.2 L129.2,222.2 L142.1,318.9 L143.4,328.8" fill="none" stroke="#4a0a0e" stroke-width="10.5" stroke-linecap="round" stroke-linejoin="round"/><path d="M36.5,115.3 L36.0,125.2 L30.8,222.2 L17.9,318.9 L16.6,328.8" fill="none" stroke="#d61f2b" stroke-width="8" stroke-linecap="round" stroke-linejoin="round"/><path d="M123.5,115.3 L124.0,125.2 L129.2,222.2 L142.1,318.9 L143.4,328.8" fill="none" stroke="#d61f2b" stroke-width="8" stroke-linecap="round" stroke-linejoin="round"/><g transform="translate(36.0,125.2)"><circle r="11" fill="#ec3b46" stroke="#4a0a0e" stroke-width="2.2"/><circle r="4.4" fill="#2e0608"/></g><g transform="translate(30.8,222.2)"><circle r="11" fill="#ec3b46" stroke="#4a0a0e" stroke-width="2.2"/><circle r="4.4" fill="#2e0608"/></g><g transform="translate(17.9,318.9)"><circle r="11" fill="#ec3b46" stroke="#4a0a0e" stroke-width="2.2"/><circle r="4.4" fill="#2e0608"/></g><g transform="translate(124.0,125.2)"><circle r="11" fill="#ec3b46" stroke="#4a0a0e" stroke-width="2.2"/><circle r="4.4" fill="#2e0608"/></g><g transform="translate(129.2,222.2)"><circle r="11" fill="#ec3b46" stroke="#4a0a0e" stroke-width="2.2"/><circle r="4.4" fill="#2e0608"/></g><g transform="translate(142.1,318.9)"><circle r="11" fill="#ec3b46" stroke="#4a0a0e" stroke-width="2.2"/><circle r="4.4" fill="#2e0608"/></g>
</g>
</svg>
