<svg viewBox="0 0 636 152" xmlns="http://www.w3.org/2000/svg">
<rect width="100%" height="100%" fill="#FFFFFF" />
<path stroke="#000000" stroke-width="6" d="M21 113L21 18M54 113L54 18M105 113L105 18M144 113L144 18M153 113L153 18M186 113L186 18M237 113L237 18M258 113L258 18M309 113L309 18M318 113L318 18M357 113L357 18M384 113L384 18M429 113L429 18M462 113L462 18M507 113L507 18M516 113L516 18M549 113L549 18M564 113L564 18M573 113L573 18M582 113L582 18M615 113L615 18" />
<path stroke="#000000" stroke-width="3" d="M28.50 113L28.50 18M37.50 113L37.50 18M67.50 113L67.50 18M76.50 113L76.50 18M85.50 113L85.50 18M91.50 113L91.50 18M118.50 113L118.50 18M178.50 113L178.50 18M196.50 113L196.50 18M217.50 113L217.50 18M229.50 113L229.50 18M250.50 113L250.50 18M283.50 113L283.50 18M295.50 113L295.50 18M340.50 113L340.50 18M349.50 113L349.50 18M370.50 113L370.50 18M406.50 113L406.50 18M415.50 113L415.50 18M436.50 113L436.50 18M481.50 113L481.50 18M523.50 113L523.50 18M535.50 113L535.50 18M607.50 113L607.50 18" />
<path stroke="#000000" stroke-width="9" d="M130.50 113L130.50 18M166.50 113L166.50 18M205.50 113L205.50 18M268.50 113L268.50 18M328.50 113L328.50 18M397.50 113L397.50 18M451.50 113L451.50 18M472.50 113L472.50 18M493.50 113L493.50 18M598.50 113L598.50 18" />
<path d="M175.66 122.55Q175.66 122.13 176.00 121.77Q176.34 121.45 176.76 121.45L180.54 122.64L180.54 118.94Q180.54 118.49 180.86 118.19Q181.20 117.88 181.64 117.88Q182.08 117.88 182.40 118.21Q182.74 118.52 182.74 118.94L182.74 122.64L186.18 121.56L186.18 121.56Q186.33 121.49 186.52 121.49Q186.96 121.49 187.28 121.82Q187.62 122.13 187.62 122.55Q187.62 123.30 186.84 123.56L183.86 124.52L185.82 127.70Q185.94 127.96 185.94 128.24Q185.94 128.69 185.62 128.99Q185.30 129.30 184.84 129.30Q184.35 129.30 184.06 129.04L181.93 125.52L179.20 129.04Q178.91 129.30 178.42 129.30Q177.95 129.30 177.64 128.99Q177.32 128.66 177.32 128.24Q177.32 127.94 177.54 127.61L179.83 124.63L176.42 123.56Q175.66 123.27 175.66 122.55ZM192.66 124.09Q192.66 123.65 192.98 123.34Q193.32 123.04 193.76 123.04L197.54 123.04L197.54 118.75Q197.54 118.31 197.86 118.00Q198.18 117.70 198.64 117.70Q199.10 117.70 199.42 118.02Q199.74 118.33 199.74 118.75L199.74 123.04L203.52 123.04Q203.96 123.04 204.28 123.37Q204.62 123.67 204.62 124.09Q204.62 124.52 204.28 124.84Q203.96 125.15 203.52 125.15L199.74 125.15L199.74 129.46Q199.74 129.88 199.40 130.21Q199.08 130.52 198.64 130.52Q198.20 130.52 197.86 130.21Q197.54 129.91 197.54 129.46L197.54 125.15L193.76 125.15Q193.32 125.15 192.98 124.84Q192.66 124.54 192.66 124.09ZM210.00 132.93Q209.68 132.58 209.68 132.09L209.68 131.76L213.57 116.06Q213.66 115.73 213.96 115.49Q214.25 115.24 214.59 115.24L216.20 115.24Q216.52 115.24 216.79 115.45Q217.08 115.63 217.15 115.92L221.13 132.11Q221.13 132.55 220.79 132.91Q220.45 133.26 220.01 133.26Q219.64 133.26 219.33 133.02Q219.03 132.77 218.96 132.41L217.86 127.84L212.91 127.84L211.83 132.41Q211.76 132.77 211.44 133.02Q211.15 133.26 210.78 133.26Q210.34 133.26 210.00 132.93M215.40 117.46L213.47 125.48L217.33 125.48L215.40 117.46ZM227.61 120.49Q227.29 120.16 227.29 119.74Q227.29 119.24 227.61 119.01L232.08 115.33Q232.40 115.07 232.79 115.07L233.57 115.07Q234.01 115.07 234.33 115.40Q234.67 115.70 234.67 116.13L234.67 132.06Q234.67 132.48 234.33 132.81Q234.01 133.12 233.57 133.12Q233.13 133.12 232.79 132.81Q232.47 132.51 232.47 132.06L232.47 117.79L229.13 120.53Q228.81 120.79 228.39 120.79Q227.93 120.79 227.61 120.49ZM244.27 118.02Q243.95 117.70 243.95 117.30Q243.95 116.71 244.42 116.41Q246.64 115.00 249.40 115.00Q251.62 115.00 253.11 116.36Q254.62 117.70 254.62 119.88Q254.62 120.74 254.30 121.54Q253.99 122.36 253.57 122.88Q253.18 123.39 252.40 124.02Q251.62 124.66 251.20 124.94Q250.81 125.22 249.96 125.76Q249.03 126.34 248.62 126.65Q248.20 126.95 247.61 127.56Q247.03 128.15 246.76 128.90Q246.49 129.63 246.44 130.63L246.44 130.75L253.67 130.75Q254.13 130.75 254.45 131.08Q254.77 131.38 254.77 131.80Q254.77 132.23 254.43 132.55Q254.11 132.86 253.67 132.86L245.32 132.86Q244.88 132.86 244.54 132.55Q244.22 132.23 244.22 131.80L244.22 131.31Q244.22 129.48 244.47 128.69Q244.88 127.28 246.03 126.18Q247.18 125.06 248.84 123.98Q251.13 122.50 251.74 121.66Q252.42 120.81 252.42 119.88Q252.42 118.63 251.52 117.86Q250.67 117.11 249.40 117.11Q247.20 117.11 245.69 118.14Q245.42 118.33 245.05 118.33Q244.61 118.33 244.27 118.02ZM261.05 132.30Q260.54 131.92 260.54 131.36Q260.54 130.91 260.86 130.61Q261.20 130.28 261.64 130.28Q261.78 130.28 262.05 130.38Q263.61 131.05 265.32 131.05Q267.18 131.05 268.45 130.16Q269.74 129.25 269.84 127.52L269.84 127.28Q269.84 126.09 269.06 125.24Q268.33 124.42 267.25 124.07Q266.20 123.74 264.91 123.74Q264.49 123.74 264.18 123.44Q263.86 123.11 263.86 122.66Q263.86 122.24 264.08 122.01L268.57 117.23L261.71 117.23Q261.27 117.23 260.93 116.92Q260.61 116.59 260.61 116.15Q260.61 115.70 260.93 115.40Q261.25 115.10 261.71 115.10L270.33 115.10Q270.77 115.10 271.08 115.42Q271.43 115.73 271.43 116.15L271.43 116.99Q271.43 117.37 271.08 117.70L267.15 121.84L267.35 121.89Q269.42 122.41 270.74 123.79Q272.04 125.17 272.04 127.26L272.04 127.63Q271.91 130.19 269.96 131.69Q268.06 133.19 265.32 133.19Q264.64 133.19 263.96 133.12Q263.27 133.05 262.42 132.88Q261.56 132.70 261.05 132.30ZM277.86 132.53Q277.54 132.18 277.54 131.69L277.54 116.27Q277.54 115.75 277.86 115.40Q278.17 115.07 278.64 115.07L282.71 115.07Q283.59 115.07 284.10 115.10Q284.62 115.14 285.35 115.31Q286.06 115.49 286.59 115.80Q287.67 116.45 288.28 117.60Q288.89 118.75 288.89 120.09Q288.89 122.20 287.47 123.51L287.38 123.60L287.47 123.70Q288.30 124.40 288.77 125.43Q289.26 126.46 289.26 127.59L289.26 127.63Q289.26 128.80 288.77 129.86Q288.30 130.89 287.42 131.62Q286.52 132.34 285.37 132.60Q284.23 132.86 282.71 132.86L278.64 132.86Q278.20 132.86 277.86 132.53M279.74 124.75L279.74 130.49L282.71 130.47Q287.06 130.47 287.06 127.56L287.06 127.54Q287.03 126.09 285.98 125.41Q284.98 124.75 283.40 124.75L279.74 124.75M279.74 117.39L279.74 122.38L283.40 122.41Q286.72 122.41 286.72 120.09L286.72 119.83Q286.64 119.06 286.30 118.56Q285.98 118.05 285.40 117.79Q284.81 117.56 284.20 117.49Q283.59 117.39 282.71 117.39L279.74 117.39ZM295.61 131.24Q294.95 130.21 294.95 128.92Q294.95 127.09 296.12 127.09Q296.59 127.09 296.88 127.42Q297.20 127.77 297.20 128.27L297.20 128.50Q297.15 128.78 297.15 128.88Q297.15 129.84 297.83 130.45Q298.47 131.05 299.25 131.05Q299.98 131.05 300.49 130.49Q301.06 129.91 301.06 128.85L301.06 116.01Q301.06 115.52 301.37 115.19Q301.72 114.84 302.15 114.84Q302.59 114.84 302.91 115.19Q303.25 115.52 303.25 116.01L303.25 128.59Q303.25 128.66 303.28 128.78Q303.28 128.88 303.28 128.92Q303.28 130.70 302.01 132.04Q300.76 133.37 299.18 133.37Q298.18 133.37 297.22 132.84Q296.27 132.25 295.61 131.24ZM312.88 127.02Q312.73 125.78 312.71 124.31L312.71 123.98Q312.71 122.48 312.86 121.21Q313.03 119.95 313.42 118.73Q313.83 117.53 314.44 116.67Q315.03 115.82 315.98 115.31Q316.86 114.79 318.01 114.74L318.13 114.74Q319.57 114.74 320.69 115.63Q321.79 116.52 322.11 117.95L322.11 118.19Q322.11 118.66 321.79 119.01Q321.47 119.36 321.03 119.36Q320.57 119.36 320.35 119.06Q320.08 118.75 319.89 118.26Q319.67 117.74 319.40 117.51Q319.40 117.51 319.40 117.51Q318.89 117.09 318.18 117.09L318.06 117.09Q314.91 117.25 314.91 123.79L314.91 124.21Q314.93 125.08 314.98 125.76Q315.03 126.44 315.15 127.26Q315.25 128.10 315.49 128.71Q315.71 129.32 316.05 129.86Q316.40 130.40 316.93 130.70Q317.49 131.01 318.18 131.01Q318.86 131.01 319.33 130.66Q319.86 130.30 319.96 129.70Q320.03 129.27 320.33 129.02Q320.64 128.73 321.03 128.73Q321.47 128.73 321.79 129.09Q322.11 129.44 322.11 129.91L322.11 130.14Q321.86 131.55 320.77 132.44Q319.67 133.33 318.18 133.33Q316.96 133.33 316.05 132.84Q315.08 132.34 314.49 131.50Q313.88 130.66 313.47 129.46Q313.05 128.27 312.88 127.02ZM329.49 132.88Q329.17 132.58 329.17 132.13Q329.17 131.66 329.49 131.36Q329.83 131.05 330.27 131.05Q335.20 131.05 336.64 128.41Q337.08 127.61 337.08 126.88Q337.08 125.17 336.25 124.31Q335.15 123.06 332.40 123.06Q331.64 123.06 330.86 123.13L330.76 123.13Q330.32 123.13 329.98 122.85Q329.66 122.55 329.66 122.13L329.66 122.06L330.00 116.08Q330.05 115.66 330.34 115.38Q330.66 115.10 331.10 115.10L338.03 115.10Q338.50 115.10 338.82 115.42Q339.13 115.73 339.13 116.15Q339.13 116.57 338.79 116.90Q338.47 117.23 338.03 117.23L332.13 117.23L331.93 120.91L332.40 120.91Q335.50 120.91 337.38 122.43Q339.28 123.93 339.28 126.88Q339.28 128.13 338.72 129.20Q338.13 130.30 337.25 131.08Q334.91 133.19 330.27 133.19Q329.83 133.19 329.49 132.88M330.83 123.13Q330.83 123.13 330.86 123.13Q330.86 123.13 330.83 123.13ZM347.12 132.51Q346.78 132.16 346.78 131.66L346.78 116.22Q346.78 115.75 347.10 115.40Q347.42 115.05 347.88 115.05Q350.37 115.05 352.01 116.06Q353.64 117.09 354.94 118.92Q356.62 121.35 356.62 124.47Q356.62 127.73 354.86 129.95Q353.15 132.16 350.54 132.70Q349.71 132.86 347.88 132.86Q347.44 132.86 347.12 132.51M349.13 117.46L348.98 117.44L348.98 130.47L349.13 130.45Q351.59 130.19 352.98 128.66Q354.42 127.16 354.42 124.42Q354.42 122.50 353.62 120.98Q352.84 119.48 351.59 118.47Q350.54 117.63 349.13 117.46ZM364.25 131.66Q362.61 130.14 362.54 127.63L362.54 127.35Q362.54 124.42 364.22 121.75Q364.91 120.65 365.88 119.43Q366.83 118.19 367.49 117.46Q368.15 116.71 369.37 115.38Q369.64 115.07 370.13 115.07Q370.55 115.07 370.86 115.40Q371.18 115.70 371.18 116.13Q371.18 116.52 370.91 116.85Q368.15 119.85 366.86 121.66L366.69 121.89L366.96 121.84Q367.66 121.70 368.40 121.70Q371.06 121.70 372.64 123.30Q374.26 124.91 374.26 127.63Q374.26 130.09 372.60 131.64Q370.94 133.19 368.40 133.19Q365.86 133.19 364.25 131.66M365.71 124.84Q364.74 125.85 364.74 127.63Q364.74 129.23 365.76 130.16Q366.76 131.08 368.40 131.08Q370.01 131.08 371.01 130.14Q372.06 129.20 372.06 127.63Q372.06 125.81 371.11 124.82Q370.18 123.81 368.40 123.81Q366.66 123.81 365.71 124.84ZM380.98 132.53Q380.66 132.18 380.66 131.69L380.66 116.29Q380.66 115.80 380.98 115.45Q381.30 115.12 381.76 115.12L389.86 115.12Q390.33 115.12 390.65 115.45Q390.96 115.80 390.96 116.29Q390.96 116.78 390.62 117.13Q390.30 117.46 389.86 117.46L382.86 117.46L382.86 122.43L388.69 122.43Q389.13 122.43 389.45 122.78Q389.79 123.13 389.79 123.63Q389.79 124.09 389.47 124.45Q389.16 124.77 388.69 124.77L382.86 124.77L382.86 130.52L389.86 130.52Q390.33 130.52 390.65 130.84Q390.96 131.20 390.96 131.69Q390.96 132.18 390.62 132.53Q390.30 132.86 389.86 132.86L381.76 132.86Q381.32 132.86 380.98 132.53ZM396.86 116.92Q396.54 116.59 396.54 116.15Q396.54 115.70 396.86 115.40Q397.17 115.10 397.64 115.10L407.16 115.10Q407.62 115.10 407.94 115.42Q408.26 115.73 408.26 116.15Q408.26 117.93 406.82 120.02Q406.38 120.67 405.11 122.20Q403.84 123.74 403.30 124.70Q401.71 127.52 401.71 132.04Q401.71 132.48 401.40 132.81Q401.08 133.12 400.66 133.12Q400.25 133.12 399.93 132.81Q399.61 132.51 399.61 132.04Q399.61 126.93 401.47 123.63Q402.03 122.66 403.30 121.05Q404.59 119.41 405.01 118.80Q405.59 117.86 405.81 117.39L405.86 117.23L397.64 117.23Q397.20 117.23 396.86 116.92ZM414.61 120.49Q414.29 120.16 414.29 119.74Q414.29 119.24 414.61 119.01L419.08 115.33Q419.40 115.07 419.79 115.07L420.57 115.07Q421.01 115.07 421.33 115.40Q421.67 115.70 421.67 116.13L421.67 132.06Q421.67 132.48 421.33 132.81Q421.01 133.12 420.57 133.12Q420.13 133.12 419.79 132.81Q419.47 132.51 419.47 132.06L419.47 117.79L416.13 120.53Q415.81 120.79 415.39 120.79Q414.93 120.79 414.61 120.49ZM431.29 128.41Q430.73 126.37 430.73 124.05L430.73 123.98Q430.73 121.70 431.29 119.76Q431.86 117.79 432.93 116.67Q434.64 114.81 436.93 114.81Q437.40 114.81 437.86 114.88Q440.01 115.26 441.35 116.95Q441.62 117.27 441.62 117.72Q441.62 118.19 441.28 118.54Q440.96 118.87 440.52 118.87Q440.03 118.87 439.69 118.47Q438.64 117.20 437.01 117.20Q435.49 117.20 434.47 118.35Q433.71 119.20 433.35 120.65Q432.95 122.10 432.95 123.81Q432.95 126.27 433.64 128.34Q434.08 129.65 435.01 130.33Q435.93 131.01 437.23 131.01Q438.35 131.01 439.57 130.54L439.64 130.52L439.64 125.81L436.86 125.81Q436.42 125.81 436.13 125.48Q435.81 125.13 435.81 124.66Q435.81 124.16 436.13 123.84Q436.45 123.49 436.86 123.49L440.74 123.49Q441.18 123.49 441.50 123.84Q441.84 124.16 441.84 124.66L441.84 131.20Q441.84 131.52 441.67 131.78Q441.47 132.06 441.25 132.23Q441.04 132.39 440.62 132.58Q440.18 132.77 439.96 132.84Q439.77 132.91 439.38 133.02Q438.30 133.35 437.18 133.35Q434.54 133.35 432.93 131.55Q431.88 130.42 431.29 128.41ZM447.66 122.55Q447.66 122.13 448.00 121.77Q448.34 121.45 448.76 121.45L452.54 122.64L452.54 118.94Q452.54 118.49 452.86 118.19Q453.20 117.88 453.64 117.88Q454.08 117.88 454.40 118.21Q454.74 118.52 454.74 118.94L454.74 122.64L458.18 121.56L458.18 121.56Q458.33 121.49 458.52 121.49Q458.96 121.49 459.28 121.82Q459.62 122.13 459.62 122.55Q459.62 123.30 458.84 123.56L455.86 124.52L457.82 127.70Q457.94 127.96 457.94 128.24Q457.94 128.69 457.62 128.99Q457.30 129.30 456.84 129.30Q456.35 129.30 456.06 129.04L453.93 125.52L451.20 129.04Q450.91 129.30 450.42 129.30Q449.95 129.30 449.64 128.99Q449.32 128.66 449.32 128.24Q449.32 127.94 449.54 127.61L451.83 124.63L448.42 123.56Q447.66 123.27 447.66 122.55Z" fill="#000000" />
</svg>
