<svg viewBox="0 0 735 279" xmlns="http://www.w3.org/2000/svg">
<rect width="100%" height="100%" fill="#FFFFFF" />
<path stroke="#000000" stroke-width="6" d="M21 240L21 18M54 240L54 18M108 240L108 18M141 240L141 18M153 240L153 18M219 240L219 18M234 240L234 18M243 240L243 18M252 240L252 18M285 240L285 18M363 240L363 18M408 240L408 18M417 240L417 18M483 240L483 18M516 240L516 18M531 240L531 18M540 240L540 18M600 240L600 18M627 240L627 18M660 240L660 18M681 240L681 18M714 240L714 18" />
<path stroke="#000000" stroke-width="3" d="M28.50 240L28.50 18M37.50 240L37.50 18M67.50 240L67.50 18M76.50 240L76.50 18M85.50 240L85.50 18M94.50 240L94.50 18M118.50 240L118.50 18M127.50 240L127.50 18M163.50 240L163.50 18M184.50 240L184.50 18M262.50 240L262.50 18M274.50 240L274.50 18M295.50 240L295.50 18M316.50 240L316.50 18M349.50 240L349.50 18M382.50 240L382.50 18M442.50 240L442.50 18M448.50 240L448.50 18M493.50 240L493.50 18M547.50 240L547.50 18M580.50 240L580.50 18M592.50 240L592.50 18M646.50 240L646.50 18M670.50 240L670.50 18M706.50 240L706.50 18" />
<path stroke="#000000" stroke-width="9" d="M172.50 240L172.50 18M193.50 240L193.50 18M307.50 240L307.50 18M340.50 240L340.50 18M373.50 240L373.50 18M397.50 240L397.50 18M427.50 240L427.50 18M457.50 240L457.50 18M505.50 240L505.50 18M571.50 240L571.50 18M616.50 240L616.50 18M637.50 240L637.50 18M697.50 240L697.50 18" />
<path stroke="#000000" stroke-width="12" d="M207 240L207 18M327 240L327 18M471 240L471 18M558 240L558 18" />
<path d="M208.66 251.09Q208.66 250.65 208.98 250.34Q209.32 250.04 209.76 250.04L213.54 250.04L213.54 245.75Q213.54 245.31 213.86 245.00Q214.18 244.70 214.64 244.70Q215.10 244.70 215.42 245.02Q215.74 245.33 215.74 245.75L215.74 250.04L219.52 250.04Q219.96 250.04 220.28 250.37Q220.62 250.67 220.62 251.09Q220.62 251.52 220.28 251.84Q219.96 252.15 219.52 252.15L215.74 252.15L215.74 256.46Q215.74 256.88 215.40 257.21Q215.08 257.52 214.64 257.52Q214.20 257.52 213.86 257.21Q213.54 256.91 213.54 256.46L213.54 252.15L209.76 252.15Q209.32 252.15 208.98 251.84Q208.66 251.54 208.66 251.09ZM225.59 256.25Q225.54 256.13 225.54 255.85Q225.54 255.41 225.86 255.10Q226.20 254.80 226.64 254.80Q227.17 254.80 227.69 255.48Q228.25 256.25 228.54 256.39Q229.13 256.70 230.23 256.79L230.35 256.79L230.35 251.63L230.25 251.61Q229.44 251.38 228.88 251.19Q228.32 250.98 227.64 250.63Q226.98 250.27 226.56 249.85Q226.15 249.43 225.88 248.80Q225.61 248.16 225.61 247.37Q225.61 245.59 226.93 244.60Q228.25 243.59 230.25 243.36L230.35 243.34L230.35 243.13Q230.35 242.68 230.66 242.38Q230.98 242.07 231.40 242.07Q231.81 242.07 232.13 242.40Q232.45 242.70 232.45 243.13L232.45 243.34L232.54 243.36Q235.11 243.69 236.47 245.61L236.47 245.61Q236.69 245.89 236.69 246.22Q236.69 246.64 236.35 246.95Q236.04 247.25 235.60 247.25Q235.03 247.25 234.69 246.81Q233.89 245.77 232.59 245.52L232.45 245.49L232.45 250.11L232.54 250.13Q233.62 250.46 234.30 250.74Q235.01 251.02 235.77 251.54Q236.52 252.03 236.89 252.78Q237.26 253.51 237.26 254.52Q237.26 256.32 235.91 257.45Q234.57 258.59 232.54 258.90L232.45 258.92L232.45 259.06Q232.45 259.48 232.13 259.81Q231.81 260.12 231.40 260.12Q230.98 260.12 230.66 259.81Q230.35 259.51 230.35 259.06L230.35 258.90L230.23 258.90Q226.59 258.59 225.61 256.25L225.59 256.25M230.20 245.52Q227.78 245.84 227.78 247.46Q227.78 247.72 227.86 247.95Q227.95 248.19 228.15 248.38Q228.35 248.54 228.47 248.66Q228.61 248.77 228.91 248.91Q229.20 249.06 229.32 249.13Q229.44 249.17 229.79 249.29Q230.13 249.41 230.18 249.43L230.35 249.48L230.35 245.49L230.20 245.52M232.45 256.74L232.59 256.72Q235.06 256.25 235.06 254.52Q235.06 253.11 232.62 252.27L232.45 252.22L232.45 256.74ZM242.59 256.25Q242.54 256.13 242.54 255.85Q242.54 255.41 242.86 255.10Q243.20 254.80 243.64 254.80Q244.17 254.80 244.69 255.48Q245.25 256.25 245.54 256.39Q246.13 256.70 247.23 256.79L247.35 256.79L247.35 251.63L247.25 251.61Q246.44 251.38 245.88 251.19Q245.32 250.98 244.64 250.63Q243.98 250.27 243.56 249.85Q243.15 249.43 242.88 248.80Q242.61 248.16 242.61 247.37Q242.61 245.59 243.93 244.60Q245.25 243.59 247.25 243.36L247.35 243.34L247.35 243.13Q247.35 242.68 247.66 242.38Q247.98 242.07 248.40 242.07Q248.81 242.07 249.13 242.40Q249.45 242.70 249.45 243.13L249.45 243.34L249.54 243.36Q252.11 243.69 253.47 245.61L253.47 245.61Q253.69 245.89 253.69 246.22Q253.69 246.64 253.35 246.95Q253.04 247.25 252.60 247.25Q252.03 247.25 251.69 246.81Q250.89 245.77 249.59 245.52L249.45 245.49L249.45 250.11L249.54 250.13Q250.62 250.46 251.30 250.74Q252.01 251.02 252.77 251.54Q253.52 252.03 253.89 252.78Q254.26 253.51 254.26 254.52Q254.26 256.32 252.91 257.45Q251.57 258.59 249.54 258.90L249.45 258.92L249.45 259.06Q249.45 259.48 249.13 259.81Q248.81 260.12 248.40 260.12Q247.98 260.12 247.66 259.81Q247.35 259.51 247.35 259.06L247.35 258.90L247.23 258.90Q243.59 258.59 242.61 256.25L242.59 256.25M247.20 245.52Q244.78 245.84 244.78 247.46Q244.78 247.72 244.86 247.95Q244.95 248.19 245.15 248.38Q245.35 248.54 245.47 248.66Q245.61 248.77 245.91 248.91Q246.20 249.06 246.32 249.13Q246.44 249.17 246.79 249.29Q247.13 249.41 247.18 249.43L247.35 249.48L247.35 245.49L247.20 245.52M249.45 256.74L249.59 256.72Q252.06 256.25 252.06 254.52Q252.06 253.11 249.62 252.27L249.45 252.22L249.45 256.74ZM260.05 259.30Q259.54 258.92 259.54 258.36Q259.54 257.91 259.86 257.61Q260.20 257.28 260.64 257.28Q260.78 257.28 261.05 257.38Q262.61 258.05 264.32 258.05Q266.18 258.05 267.45 257.16Q268.74 256.25 268.84 254.52L268.84 254.28Q268.84 253.09 268.06 252.24Q267.33 251.42 266.25 251.07Q265.20 250.74 263.91 250.74Q263.49 250.74 263.18 250.44Q262.86 250.11 262.86 249.66Q262.86 249.24 263.08 249.01L267.57 244.23L260.71 244.23Q260.27 244.23 259.93 243.92Q259.61 243.59 259.61 243.15Q259.61 242.70 259.93 242.40Q260.25 242.10 260.71 242.10L269.33 242.10Q269.77 242.10 270.08 242.42Q270.43 242.73 270.43 243.15L270.43 243.99Q270.43 244.37 270.08 244.70L266.15 248.84L266.35 248.89Q268.42 249.41 269.74 250.79Q271.04 252.17 271.04 254.26L271.04 254.63Q270.91 257.19 268.96 258.69Q267.06 260.19 264.32 260.19Q263.64 260.19 262.96 260.12Q262.27 260.05 261.42 259.88Q260.56 259.70 260.05 259.30ZM277.05 259.30Q276.54 258.92 276.54 258.36Q276.54 257.91 276.86 257.61Q277.20 257.28 277.64 257.28Q277.78 257.28 278.05 257.38Q279.61 258.05 281.32 258.05Q283.18 258.05 284.45 257.16Q285.74 256.25 285.84 254.52L285.84 254.28Q285.84 253.09 285.06 252.24Q284.33 251.42 283.25 251.07Q282.20 250.74 280.91 250.74Q280.49 250.74 280.18 250.44Q279.86 250.11 279.86 249.66Q279.86 249.24 280.08 249.01L284.57 244.23L277.71 244.23Q277.27 244.23 276.93 243.92Q276.61 243.59 276.61 243.15Q276.61 242.70 276.93 242.40Q277.25 242.10 277.71 242.10L286.33 242.10Q286.77 242.10 287.08 242.42Q287.43 242.73 287.43 243.15L287.43 243.99Q287.43 244.37 287.08 244.70L283.15 248.84L283.35 248.89Q285.42 249.41 286.74 250.79Q288.04 252.17 288.04 254.26L288.04 254.63Q287.91 257.19 285.96 258.69Q284.06 260.19 281.32 260.19Q280.64 260.19 279.96 260.12Q279.27 260.05 278.42 259.88Q277.56 259.70 277.05 259.30ZM294.27 245.02Q293.95 244.70 293.95 244.30Q293.95 243.71 294.42 243.41Q296.64 242.00 299.40 242.00Q301.62 242.00 303.11 243.36Q304.62 244.70 304.62 246.88Q304.62 247.74 304.30 248.54Q303.99 249.36 303.57 249.88Q303.18 250.39 302.40 251.02Q301.62 251.66 301.20 251.94Q300.81 252.22 299.96 252.76Q299.03 253.34 298.62 253.65Q298.20 253.95 297.61 254.56Q297.03 255.15 296.76 255.90Q296.49 256.63 296.44 257.63L296.44 257.75L303.67 257.75Q304.13 257.75 304.45 258.08Q304.77 258.38 304.77 258.80Q304.77 259.23 304.43 259.55Q304.11 259.86 303.67 259.86L295.32 259.86Q294.88 259.86 294.54 259.55Q294.22 259.23 294.22 258.80L294.22 258.31Q294.22 256.48 294.47 255.69Q294.88 254.28 296.03 253.18Q297.18 252.06 298.84 250.98Q301.13 249.50 301.74 248.66Q302.42 247.81 302.42 246.88Q302.42 245.63 301.52 244.86Q300.67 244.11 299.40 244.11Q297.20 244.11 295.69 245.14Q295.42 245.33 295.05 245.33Q294.61 245.33 294.27 245.02ZM311.61 247.49Q311.29 247.16 311.29 246.74Q311.29 246.24 311.61 246.01L316.08 242.33Q316.40 242.07 316.79 242.07L317.57 242.07Q318.01 242.07 318.33 242.40Q318.67 242.70 318.67 243.13L318.67 259.06Q318.67 259.48 318.33 259.81Q318.01 260.12 317.57 260.12Q317.13 260.12 316.79 259.81Q316.47 259.51 316.47 259.06L316.47 244.79L313.13 247.53Q312.81 247.79 312.39 247.79Q311.93 247.79 311.61 247.49ZM333.49 260.19L333.40 260.19Q331.96 260.16 330.88 259.72Q329.81 259.30 329.17 258.62Q328.54 257.91 328.17 256.81Q327.78 255.71 327.66 254.59Q327.54 253.48 327.54 251.98Q327.54 250.65 327.56 249.71Q327.61 248.75 327.76 247.65Q327.90 246.52 328.15 245.77Q328.42 245.00 328.86 244.23Q329.30 243.48 329.91 243.03Q330.52 242.59 331.40 242.31Q332.27 242.02 333.40 242.02Q334.50 242.02 335.37 242.31Q336.25 242.59 336.86 243.03Q337.47 243.48 337.94 244.23Q338.38 245.00 338.62 245.77Q338.89 246.55 339.04 247.65Q339.18 248.75 339.21 249.71Q339.26 250.67 339.26 251.98Q339.26 252.92 339.21 253.70Q339.16 254.45 338.99 255.34Q338.84 256.23 338.60 256.91Q338.35 257.56 337.89 258.20Q337.42 258.83 336.84 259.25Q336.25 259.67 335.40 259.93Q334.54 260.19 333.49 260.19M329.74 250.06L329.74 251.98Q329.74 253.04 329.78 253.79Q329.86 254.54 330.08 255.41Q330.27 256.27 330.66 256.81Q331.05 257.38 331.74 257.75Q332.42 258.10 333.40 258.10L333.91 258.10Q334.59 258.10 335.13 257.84Q335.67 257.56 335.98 257.05Q336.33 256.55 336.55 255.99Q336.77 255.41 336.86 254.68Q336.99 253.93 337.01 253.32Q337.06 252.71 337.06 251.98L337.06 250.91Q337.06 250.18 337.03 249.76Q337.03 249.31 337.01 248.66Q336.99 247.98 336.91 247.60Q336.84 247.20 336.72 246.67Q336.59 246.13 336.40 245.80Q336.20 245.47 335.94 245.12Q335.64 244.77 335.30 244.58Q334.93 244.37 334.45 244.25Q333.98 244.13 333.40 244.13Q332.79 244.13 332.30 244.27Q331.83 244.39 331.47 244.63Q331.10 244.86 330.81 245.21Q330.54 245.54 330.35 245.96Q330.15 246.36 330.03 246.85Q329.91 247.32 329.86 247.86Q329.81 248.38 329.76 248.94Q329.74 249.48 329.74 250.06ZM345.27 245.02Q344.95 244.70 344.95 244.30Q344.95 243.71 345.42 243.41Q347.64 242.00 350.40 242.00Q352.62 242.00 354.11 243.36Q355.62 244.70 355.62 246.88Q355.62 247.74 355.30 248.54Q354.99 249.36 354.57 249.88Q354.18 250.39 353.40 251.02Q352.62 251.66 352.20 251.94Q351.81 252.22 350.96 252.76Q350.03 253.34 349.62 253.65Q349.20 253.95 348.61 254.56Q348.03 255.15 347.76 255.90Q347.49 256.63 347.44 257.63L347.44 257.75L354.67 257.75Q355.13 257.75 355.45 258.08Q355.77 258.38 355.77 258.80Q355.77 259.23 355.43 259.55Q355.11 259.86 354.67 259.86L346.32 259.86Q345.88 259.86 345.54 259.55Q345.22 259.23 345.22 258.80L345.22 258.31Q345.22 256.48 345.47 255.69Q345.88 254.28 347.03 253.18Q348.18 252.06 349.84 250.98Q352.13 249.50 352.74 248.66Q353.42 247.81 353.42 246.88Q353.42 245.63 352.52 244.86Q351.67 244.11 350.40 244.11Q348.20 244.11 346.69 245.14Q346.42 245.33 346.05 245.33Q345.61 245.33 345.27 245.02ZM367.49 260.19L367.40 260.19Q365.96 260.16 364.88 259.72Q363.81 259.30 363.17 258.62Q362.54 257.91 362.17 256.81Q361.78 255.71 361.66 254.59Q361.54 253.48 361.54 251.98Q361.54 250.65 361.56 249.71Q361.61 248.75 361.76 247.65Q361.90 246.52 362.15 245.77Q362.42 245.00 362.86 244.23Q363.30 243.48 363.91 243.03Q364.52 242.59 365.40 242.31Q366.27 242.02 367.40 242.02Q368.50 242.02 369.37 242.31Q370.25 242.59 370.86 243.03Q371.47 243.48 371.94 244.23Q372.38 245.00 372.62 245.77Q372.89 246.55 373.04 247.65Q373.18 248.75 373.21 249.71Q373.26 250.67 373.26 251.98Q373.26 252.92 373.21 253.70Q373.16 254.45 372.99 255.34Q372.84 256.23 372.60 256.91Q372.35 257.56 371.89 258.20Q371.42 258.83 370.84 259.25Q370.25 259.67 369.40 259.93Q368.54 260.19 367.49 260.19M363.74 250.06L363.74 251.98Q363.74 253.04 363.78 253.79Q363.86 254.54 364.08 255.41Q364.27 256.27 364.66 256.81Q365.05 257.38 365.74 257.75Q366.42 258.10 367.40 258.10L367.91 258.10Q368.59 258.10 369.13 257.84Q369.67 257.56 369.98 257.05Q370.33 256.55 370.55 255.99Q370.77 255.41 370.86 254.68Q370.99 253.93 371.01 253.32Q371.06 252.71 371.06 251.98L371.06 250.91Q371.06 250.18 371.03 249.76Q371.03 249.31 371.01 248.66Q370.99 247.98 370.91 247.60Q370.84 247.20 370.72 246.67Q370.59 246.13 370.40 245.80Q370.20 245.47 369.94 245.12Q369.64 244.77 369.30 244.58Q368.93 244.37 368.45 244.25Q367.98 244.13 367.40 244.13Q366.79 244.13 366.30 244.27Q365.83 244.39 365.47 244.63Q365.10 244.86 364.81 245.21Q364.54 245.54 364.35 245.96Q364.15 246.36 364.03 246.85Q363.91 247.32 363.86 247.86Q363.81 248.38 363.76 248.94Q363.74 249.48 363.74 250.06ZM379.56 259.39Q379.22 259.04 379.22 258.57L379.22 242.99Q379.22 242.52 379.54 242.19Q379.88 241.84 380.32 241.84Q380.76 241.84 381.08 242.19Q381.42 242.52 381.42 242.99L381.42 257.40L389.16 257.40Q389.62 257.40 389.94 257.75Q390.26 258.10 390.26 258.57Q390.26 259.04 389.91 259.39Q389.60 259.74 389.16 259.74L380.32 259.74Q379.88 259.74 379.56 259.39ZM396.03 254.38Q395.61 252.73 395.61 251.07L395.61 251.00Q395.61 249.74 395.81 248.47Q396.03 247.18 396.49 245.99Q396.95 244.77 397.66 243.85Q398.32 242.94 399.30 242.40Q400.25 241.84 401.40 241.84Q402.69 241.84 403.79 242.63Q404.91 243.41 405.64 244.72Q406.38 246.03 406.77 247.67Q407.18 249.29 407.18 251.00L407.18 251.07Q407.18 252.73 406.77 254.38Q406.38 255.99 405.67 257.35Q404.94 258.69 403.81 259.51Q402.72 260.33 401.40 260.33Q400.10 260.33 399.00 259.51Q397.88 258.69 397.15 257.35Q396.44 255.99 396.03 254.38M398.00 248.82Q397.81 249.95 397.81 250.98L397.81 251.07Q397.81 252.15 398.03 253.30Q398.25 254.45 398.66 255.50Q399.08 256.60 399.79 257.30Q400.52 258.03 401.40 258.03Q402.28 258.03 403.01 257.30Q403.72 256.60 404.13 255.50Q404.55 254.45 404.77 253.30Q404.99 252.13 404.99 251.07Q404.99 249.92 404.77 248.75Q404.57 247.58 404.16 246.52Q403.74 245.47 403.03 244.79Q402.30 244.11 401.40 244.11Q400.49 244.11 399.74 244.81Q399.03 245.52 398.64 246.62Q398.22 247.67 398.00 248.82ZM412.88 244.20Q412.54 243.85 412.54 243.36Q412.54 242.87 412.86 242.52Q413.17 242.19 413.64 242.19L423.16 242.19Q423.62 242.19 423.94 242.54Q424.26 242.89 424.26 243.38Q424.26 243.85 423.91 244.20Q423.60 244.56 423.16 244.56L419.45 244.56L419.45 259.09Q419.45 259.55 419.13 259.91Q418.81 260.26 418.40 260.26Q417.98 260.26 417.66 259.93Q417.35 259.58 417.35 259.09L417.35 244.56L413.64 244.56Q413.20 244.56 412.88 244.20ZM430.27 245.02Q429.95 244.70 429.95 244.30Q429.95 243.71 430.42 243.41Q432.64 242.00 435.40 242.00Q437.62 242.00 439.11 243.36Q440.62 244.70 440.62 246.88Q440.62 247.74 440.30 248.54Q439.99 249.36 439.57 249.88Q439.18 250.39 438.40 251.02Q437.62 251.66 437.20 251.94Q436.81 252.22 435.96 252.76Q435.03 253.34 434.62 253.65Q434.20 253.95 433.61 254.56Q433.03 255.15 432.76 255.90Q432.49 256.63 432.44 257.63L432.44 257.75L439.67 257.75Q440.13 257.75 440.45 258.08Q440.77 258.38 440.77 258.80Q440.77 259.23 440.43 259.55Q440.11 259.86 439.67 259.86L431.32 259.86Q430.88 259.86 430.54 259.55Q430.22 259.23 430.22 258.80L430.22 258.31Q430.22 256.48 430.47 255.69Q430.88 254.28 432.03 253.18Q433.18 252.06 434.84 250.98Q437.13 249.50 437.74 248.66Q438.42 247.81 438.42 246.88Q438.42 245.63 437.52 244.86Q436.67 244.11 435.40 244.11Q433.20 244.11 431.69 245.14Q431.42 245.33 431.05 245.33Q430.61 245.33 430.27 245.02ZM452.49 260.19L452.40 260.19Q450.96 260.16 449.88 259.72Q448.81 259.30 448.17 258.62Q447.54 257.91 447.17 256.81Q446.78 255.71 446.66 254.59Q446.54 253.48 446.54 251.98Q446.54 250.65 446.56 249.71Q446.61 248.75 446.76 247.65Q446.90 246.52 447.15 245.77Q447.42 245.00 447.86 244.23Q448.30 243.48 448.91 243.03Q449.52 242.59 450.40 242.31Q451.27 242.02 452.40 242.02Q453.50 242.02 454.37 242.31Q455.25 242.59 455.86 243.03Q456.47 243.48 456.94 244.23Q457.38 245.00 457.62 245.77Q457.89 246.55 458.04 247.65Q458.18 248.75 458.21 249.71Q458.26 250.67 458.26 251.98Q458.26 252.92 458.21 253.70Q458.16 254.45 457.99 255.34Q457.84 256.23 457.60 256.91Q457.35 257.56 456.89 258.20Q456.42 258.83 455.84 259.25Q455.25 259.67 454.40 259.93Q453.54 260.19 452.49 260.19M448.74 250.06L448.74 251.98Q448.74 253.04 448.78 253.79Q448.86 254.54 449.08 255.41Q449.27 256.27 449.66 256.81Q450.05 257.38 450.74 257.75Q451.42 258.10 452.40 258.10L452.91 258.10Q453.59 258.10 454.13 257.84Q454.67 257.56 454.98 257.05Q455.33 256.55 455.55 255.99Q455.77 255.41 455.86 254.68Q455.99 253.93 456.01 253.32Q456.06 252.71 456.06 251.98L456.06 250.91Q456.06 250.18 456.03 249.76Q456.03 249.31 456.01 248.66Q455.99 247.98 455.91 247.60Q455.84 247.20 455.72 246.67Q455.59 246.13 455.40 245.80Q455.20 245.47 454.94 245.12Q454.64 244.77 454.30 244.58Q453.93 244.37 453.45 244.25Q452.98 244.13 452.40 244.13Q451.79 244.13 451.30 244.27Q450.83 244.39 450.47 244.63Q450.10 244.86 449.81 245.21Q449.54 245.54 449.35 245.96Q449.15 246.36 449.03 246.85Q448.91 247.32 448.86 247.86Q448.81 248.38 448.76 248.94Q448.74 249.48 448.74 250.06ZM464.05 259.30Q463.54 258.92 463.54 258.36Q463.54 257.91 463.86 257.61Q464.20 257.28 464.64 257.28Q464.78 257.28 465.05 257.38Q466.61 258.05 468.32 258.05Q470.18 258.05 471.45 257.16Q472.74 256.25 472.84 254.52L472.84 254.28Q472.84 253.09 472.06 252.24Q471.33 251.42 470.25 251.07Q469.20 250.74 467.91 250.74Q467.49 250.74 467.18 250.44Q466.86 250.11 466.86 249.66Q466.86 249.24 467.08 249.01L471.57 244.23L464.71 244.23Q464.27 244.23 463.93 243.92Q463.61 243.59 463.61 243.15Q463.61 242.70 463.93 242.40Q464.25 242.10 464.71 242.10L473.33 242.10Q473.77 242.10 474.08 242.42Q474.43 242.73 474.43 243.15L474.43 243.99Q474.43 244.37 474.08 244.70L470.15 248.84L470.35 248.89Q472.42 249.41 473.74 250.79Q475.04 252.17 475.04 254.26L475.04 254.63Q474.91 257.19 472.96 258.69Q471.06 260.19 468.32 260.19Q467.64 260.19 466.96 260.12Q466.27 260.05 465.42 259.88Q464.56 259.70 464.05 259.30ZM481.27 245.02Q480.95 244.70 480.95 244.30Q480.95 243.71 481.42 243.41Q483.64 242.00 486.40 242.00Q488.62 242.00 490.11 243.36Q491.62 244.70 491.62 246.88Q491.62 247.74 491.30 248.54Q490.99 249.36 490.57 249.88Q490.18 250.39 489.40 251.02Q488.62 251.66 488.20 251.94Q487.81 252.22 486.96 252.76Q486.03 253.34 485.62 253.65Q485.20 253.95 484.61 254.56Q484.03 255.15 483.76 255.90Q483.49 256.63 483.44 257.63L483.44 257.75L490.67 257.75Q491.13 257.75 491.45 258.08Q491.77 258.38 491.77 258.80Q491.77 259.23 491.43 259.55Q491.11 259.86 490.67 259.86L482.32 259.86Q481.88 259.86 481.54 259.55Q481.22 259.23 481.22 258.80L481.22 258.31Q481.22 256.48 481.47 255.69Q481.88 254.28 483.03 253.18Q484.18 252.06 485.84 250.98Q488.13 249.50 488.74 248.66Q489.42 247.81 489.42 246.88Q489.42 245.63 488.52 244.86Q487.67 244.11 486.40 244.11Q484.20 244.11 482.69 245.14Q482.42 245.33 482.05 245.33Q481.61 245.33 481.27 245.02ZM497.86 259.53Q497.54 259.18 497.54 258.69L497.54 243.27Q497.54 242.75 497.86 242.40Q498.17 242.07 498.64 242.07L502.71 242.07Q503.59 242.07 504.10 242.10Q504.62 242.14 505.35 242.31Q506.06 242.49 506.59 242.80Q507.67 243.45 508.28 244.60Q508.89 245.75 508.89 247.09Q508.89 249.20 507.47 250.51L507.38 250.60L507.47 250.70Q508.30 251.40 508.77 252.43Q509.26 253.46 509.26 254.59L509.26 254.63Q509.26 255.80 508.77 256.86Q508.30 257.89 507.42 258.62Q506.52 259.34 505.37 259.60Q504.23 259.86 502.71 259.86L498.64 259.86Q498.20 259.86 497.86 259.53M499.74 251.75L499.74 257.49L502.71 257.47Q507.06 257.47 507.06 254.56L507.06 254.54Q507.03 253.09 505.98 252.41Q504.98 251.75 503.40 251.75L499.74 251.75M499.74 244.39L499.74 249.38L503.40 249.41Q506.72 249.41 506.72 247.09L506.72 246.83Q506.64 246.06 506.30 245.56Q505.98 245.05 505.40 244.79Q504.81 244.56 504.20 244.49Q503.59 244.39 502.71 244.39L499.74 244.39ZM514.86 243.92Q514.54 243.59 514.54 243.15Q514.54 242.70 514.86 242.40Q515.17 242.10 515.64 242.10L525.16 242.10Q525.62 242.10 525.94 242.42Q526.26 242.73 526.26 243.15Q526.26 244.93 524.82 247.02Q524.38 247.67 523.11 249.20Q521.84 250.74 521.30 251.70Q519.71 254.52 519.71 259.04Q519.71 259.48 519.40 259.81Q519.08 260.12 518.66 260.12Q518.25 260.12 517.93 259.81Q517.61 259.51 517.61 259.04Q517.61 253.93 519.47 250.63Q520.03 249.66 521.30 248.05Q522.59 246.41 523.01 245.80Q523.59 244.86 523.81 244.39L523.86 244.23L515.64 244.23Q515.20 244.23 514.86 243.92Z" fill="#000000" />
</svg>
