<svg viewBox="0 0 156 156" xmlns="http://www.w3.org/2000/svg">
<rect width="100%" height="100%" fill="#FFFFFF" />
<path d="M18 138L138 138L138 132L132 132L132 126L126 126L126 132L120 132L120 126L114 126L114 132L102 132L102 108L90 108L90 114L96 114L96 132L90 132L90 126L84 126L84 132L72 132L72 126L66 126L66 114L60 114L60 126L54 126L54 132L48 132L48 126L36 126L36 132L24 132L24 126L30 126L30 108L36 108L36 120L48 120L48 108L54 108L54 114L60 114L60 108L72 108L72 102L66 102L66 96L60 96L60 90L54 90L54 96L42 96L42 90L30 90L30 96L36 96L36 102L30 102L30 96L24 96L24 90L30 90L30 84L24 84L24 78L30 78L30 72L36 72L36 66L30 66L30 60L24 60L24 48L36 48L36 42L48 42L48 30L42 30L42 36L30 36L30 42L24 42L24 30L30 30L30 24L24 24L24 18L18 18ZM48 126L54 126L54 120L48 120ZM72 126L78 126L78 120L72 120ZM108 126L114 126L114 120L108 120ZM120 126L126 126L126 120L120 120ZM132 126L138 126L138 120L132 120ZM78 114L84 114L84 102L78 102ZM108 114L114 114L114 102L108 102L108 96L96 96L96 102L102 102L102 108L108 108ZM120 114L126 114L126 108L120 108ZM132 114L138 114L138 108L132 108ZM126 108L132 108L132 102L138 102L138 96L126 96ZM72 102L78 102L78 90L84 90L84 96L96 96L96 84L102 84L102 78L96 78L96 72L90 72L90 84L84 84L84 78L78 78L78 66L84 66L84 72L90 72L90 60L84 60L84 54L78 54L78 60L72 60L72 84L66 84L66 96L72 96ZM114 102L120 102L120 96L114 96ZM108 96L114 96L114 90L108 90ZM102 90L108 90L108 84L102 84ZM114 90L120 90L120 78L108 78L108 84L114 84ZM126 90L138 90L138 84L132 84L132 78L138 78L138 72L126 72L126 66L120 66L120 78L126 78ZM36 84L48 84L48 78L54 78L54 72L48 72L48 66L42 66L42 78L36 78ZM60 84L66 84L66 78L60 78ZM102 78L108 78L108 72L102 72ZM60 72L66 72L66 66L60 66ZM108 72L114 72L114 66L108 66ZM36 66L42 66L42 60L36 60ZM48 66L60 66L60 60L72 60L72 54L78 54L78 48L66 48L66 54L54 54L54 60L48 60ZM96 66L102 66L102 54L90 54L90 60L96 60ZM114 66L120 66L120 60L114 60ZM126 66L138 66L138 60L126 60ZM30 60L36 60L36 54L30 54ZM42 60L48 60L48 54L54 54L54 48L60 48L60 42L48 42L48 48L36 48L36 54L42 54ZM84 54L90 54L90 36L78 36L78 42L84 42ZM108 54L138 54L138 48L132 48L132 42L126 42L126 48L108 48ZM60 42L66 42L66 36L72 36L72 30L78 30L78 24L72 24L72 18L66 18L66 24L60 24L60 18L54 18L54 24L48 24L48 30L54 30L54 36L60 36ZM96 42L102 42L102 36L108 36L108 30L96 30ZM108 42L120 42L120 36L126 36L126 30L138 30L138 24L132 24L132 18L126 18L126 24L120 24L120 18L114 18L114 36L108 36ZM132 42L138 42L138 36L132 36ZM84 30L90 30L90 24L84 24ZM30 24L36 24L36 18L30 18ZM42 24L48 24L48 18L42 18ZM78 24L84 24L84 18L78 18ZM90 24L96 24L96 18L90 18ZM102 24L108 24L108 18L102 18Z" fill="#000000" fill-rule="evenodd" />
</svg>
