<svg viewBox="0 0 280 280" xmlns="http://www.w3.org/2000/svg">
<rect width="100%" height="100%" fill="#FFFFFF" />
<path d="M30 250L250 250L250 240L240 240L240 230L250 230L250 220L240 220L240 210L230 210L230 200L240 200L240 190L230 190L230 180L220 180L220 190L170 190L170 200L210 200L210 220L200 220L200 240L180 240L180 230L190 230L190 220L200 220L200 210L170 210L170 230L160 230L160 210L170 210L170 200L140 200L140 220L150 220L150 230L140 230L140 220L130 220L130 200L120 200L120 210L100 210L100 230L110 230L110 220L120 220L120 230L130 230L130 240L100 240L100 230L90 230L90 240L60 240L60 230L70 230L70 210L60 210L60 220L40 220L40 200L50 200L50 190L70 190L70 180L60 180L60 150L50 150L50 170L40 170L40 130L50 130L50 140L60 140L60 150L70 150L70 160L80 160L80 170L90 170L90 180L100 180L100 160L90 160L90 140L80 140L80 130L90 130L90 140L100 140L100 120L80 120L80 110L70 110L70 130L60 130L60 120L40 120L40 100L50 100L50 110L70 110L70 100L80 100L80 90L40 90L40 80L70 80L70 70L80 70L80 30L70 30L70 60L50 60L50 70L40 70L40 50L50 50L50 40L40 40L40 30L30 30ZM40 240L40 230L50 230L50 240ZM80 230L90 230L90 220L80 220ZM220 230L220 220L230 220L230 230ZM50 210L60 210L60 200L50 200ZM80 210L100 210L100 200L110 200L110 190L120 190L120 180L130 180L130 170L110 170L110 180L100 180L100 190L90 190L90 200L80 200ZM240 210L250 210L250 200L240 200ZM130 200L140 200L140 180L130 180ZM150 190L170 190L170 180L150 180ZM240 190L250 190L250 180L240 180ZM140 180L150 180L150 170L140 170ZM180 180L190 180L190 170L210 170L210 180L220 180L220 170L230 170L230 180L240 180L240 170L250 170L250 160L240 160L240 150L230 150L230 160L220 160L220 150L210 150L210 160L200 160L200 150L190 150L190 140L180 140L180 160L170 160L170 130L160 130L160 170L180 170ZM100 160L110 160L110 150L100 150ZM120 160L130 160L130 150L140 150L140 140L150 140L150 130L160 130L160 110L150 110L150 120L110 120L110 150L120 150ZM220 150L230 150L230 140L240 140L240 130L220 130ZM240 150L250 150L250 140L240 140ZM190 140L200 140L200 130L190 130ZM170 130L190 130L190 120L170 120ZM200 130L210 130L210 120L230 120L230 110L250 110L250 100L240 100L240 90L250 90L250 80L230 80L230 70L250 70L250 60L240 60L240 50L230 50L230 60L220 60L220 70L190 70L190 50L180 50L180 30L170 30L170 60L180 60L180 80L190 80L190 90L180 90L180 110L190 110L190 100L200 100L200 90L210 90L210 100L220 100L220 90L230 90L230 100L220 100L220 110L210 110L210 100L200 100L200 110L190 110L190 120L200 120ZM240 130L250 130L250 120L240 120ZM80 110L90 110L90 100L80 100ZM100 110L110 110L110 90L90 90L90 100L100 100ZM130 110L150 110L150 90L140 90L140 100L130 100ZM160 110L170 110L170 90L160 90ZM80 90L90 90L90 80L80 80ZM90 80L100 80L100 70L90 70ZM120 80L150 80L150 70L120 70ZM100 70L110 70L110 50L100 50ZM150 70L160 70L160 50L150 50ZM120 60L130 60L130 40L120 40ZM200 60L220 60L220 50L210 50L210 40L200 40ZM140 50L150 50L150 40L140 40ZM220 50L230 50L230 40L220 40ZM240 50L250 50L250 40L240 40ZM50 40L60 40L60 30L50 30ZM90 40L100 40L100 30L90 30ZM110 40L120 40L120 30L110 30ZM130 40L140 40L140 30L130 30ZM150 40L160 40L160 30L150 30ZM190 40L200 40L200 30L190 30ZM210 40L220 40L220 30L210 30ZM230 40L240 40L240 30L230 30Z" fill="#000000" fill-rule="evenodd" />
</svg>
