<svg viewBox="0 0 834 152" xmlns="http://www.w3.org/2000/svg">
<rect width="100%" height="100%" fill="#FFFFFF" />
<path stroke="#000000" stroke-width="6" d="M21 113L21 18M87 113L87 18M99 113L99 18M108 113L108 18M129 113L129 18M153 113L153 18M204 113L204 18M231 113L231 18M252 113L252 18M318 113L318 18M375 113L375 18M399 113L399 18M417 113L417 18M429 113L429 18M438 113L438 18M450 113L450 18M462 113L462 18M471 113L471 18M483 113L483 18M561 113L561 18M606 113L606 18M615 113L615 18M648 113L648 18M681 113L681 18M732 113L732 18M756 113L756 18M780 113L780 18M813 113L813 18" />
<path stroke="#000000" stroke-width="3" d="M28.50 113L28.50 18M67.50 113L67.50 18M118.50 113L118.50 18M142.50 113L142.50 18M163.50 113L163.50 18M178.50 113L178.50 18M184.50 113L184.50 18M190.50 113L190.50 18M241.50 113L241.50 18M259.50 113L259.50 18M283.50 113L283.50 18M292.50 113L292.50 18M328.50 113L328.50 18M340.50 113L340.50 18M349.50 113L349.50 18M406.50 113L406.50 18M493.50 113L493.50 18M505.50 113L505.50 18M514.50 113L514.50 18M547.50 113L547.50 18M580.50 113L580.50 18M640.50 113L640.50 18M673.50 113L673.50 18M691.50 113L691.50 18M712.50 113L712.50 18M718.50 113L718.50 18M745.50 113L745.50 18M763.50 113L763.50 18M805.50 113L805.50 18" />
<path stroke="#000000" stroke-width="9" d="M40.50 113L40.50 18M76.50 113L76.50 18M220.50 113L220.50 18M274.50 113L274.50 18M361.50 113L361.50 18M385.50 113L385.50 18M538.50 113L538.50 18M571.50 113L571.50 18M595.50 113L595.50 18M625.50 113L625.50 18M661.50 113L661.50 18M703.50 113L703.50 18M796.50 113L796.50 18" />
<path stroke="#000000" stroke-width="12" d="M57 113L57 18M303 113L303 18M525 113L525 18" />
<path d="M100.15 124.31L100.15 124.16Q100.22 118.54 105.23 115.19Q105.50 115.00 105.84 115.00Q106.28 115.00 106.60 115.31Q106.94 115.61 106.94 116.06Q106.94 116.59 106.45 116.92Q104.55 118.12 103.47 119.85Q102.37 121.61 102.35 124.16L102.35 124.28Q102.35 128.73 106.45 131.24Q106.94 131.57 106.94 132.13Q106.94 132.58 106.60 132.88Q106.28 133.19 105.84 133.19Q105.50 133.19 105.23 133.02Q100.15 129.74 100.15 124.31ZM119.49 133.19L119.40 133.19Q117.96 133.16 116.88 132.72Q115.81 132.30 115.17 131.62Q114.54 130.91 114.17 129.81Q113.78 128.71 113.66 127.59Q113.54 126.48 113.54 124.98Q113.54 123.65 113.56 122.71Q113.61 121.75 113.76 120.65Q113.90 119.52 114.15 118.77Q114.42 118.00 114.86 117.23Q115.30 116.48 115.91 116.03Q116.52 115.59 117.40 115.31Q118.27 115.02 119.40 115.02Q120.50 115.02 121.37 115.31Q122.25 115.59 122.86 116.03Q123.47 116.48 123.94 117.23Q124.38 118.00 124.62 118.77Q124.89 119.55 125.04 120.65Q125.18 121.75 125.21 122.71Q125.26 123.67 125.26 124.98Q125.26 125.92 125.21 126.70Q125.16 127.45 124.99 128.34Q124.84 129.23 124.60 129.91Q124.35 130.56 123.89 131.20Q123.42 131.83 122.84 132.25Q122.25 132.67 121.40 132.93Q120.54 133.19 119.49 133.19M115.74 123.06L115.74 124.98Q115.74 126.04 115.78 126.79Q115.86 127.54 116.08 128.41Q116.27 129.27 116.66 129.81Q117.05 130.38 117.74 130.75Q118.42 131.10 119.40 131.10L119.91 131.10Q120.59 131.10 121.13 130.84Q121.67 130.56 121.98 130.05Q122.33 129.55 122.55 128.99Q122.77 128.41 122.86 127.68Q122.99 126.93 123.01 126.32Q123.06 125.71 123.06 124.98L123.06 123.91Q123.06 123.18 123.03 122.76Q123.03 122.31 123.01 121.66Q122.99 120.98 122.91 120.60Q122.84 120.20 122.72 119.67Q122.59 119.13 122.40 118.80Q122.20 118.47 121.94 118.12Q121.64 117.77 121.30 117.58Q120.93 117.37 120.45 117.25Q119.98 117.13 119.40 117.13Q118.79 117.13 118.30 117.27Q117.83 117.39 117.47 117.63Q117.10 117.86 116.81 118.21Q116.54 118.54 116.35 118.96Q116.15 119.36 116.03 119.85Q115.91 120.32 115.86 120.86Q115.81 121.38 115.76 121.94Q115.74 122.48 115.74 123.06ZM131.61 120.49Q131.29 120.16 131.29 119.74Q131.29 119.24 131.61 119.01L136.08 115.33Q136.40 115.07 136.79 115.07L137.57 115.07Q138.01 115.07 138.33 115.40Q138.67 115.70 138.67 116.13L138.67 132.06Q138.67 132.48 138.33 132.81Q138.01 133.12 137.57 133.12Q137.13 133.12 136.79 132.81Q136.47 132.51 136.47 132.06L136.47 117.79L133.13 120.53Q132.81 120.79 132.39 120.79Q131.93 120.79 131.61 120.49ZM149.32 132.13Q149.32 131.57 149.81 131.24Q153.93 128.66 153.93 124.16Q153.93 119.62 149.81 116.92L149.78 116.90Q149.61 116.85 149.47 116.57Q149.32 116.29 149.32 116.06Q149.32 115.63 149.64 115.33Q149.98 115.00 150.42 115.00Q150.76 115.00 151.03 115.19Q156.13 118.56 156.13 124.16Q156.13 129.70 151.03 133.02Q150.76 133.19 150.42 133.19Q149.98 133.19 149.64 132.88Q149.32 132.55 149.32 132.13ZM170.49 133.19L170.40 133.19Q168.96 133.16 167.88 132.72Q166.81 132.30 166.17 131.62Q165.54 130.91 165.17 129.81Q164.78 128.71 164.66 127.59Q164.54 126.48 164.54 124.98Q164.54 123.65 164.56 122.71Q164.61 121.75 164.76 120.65Q164.90 119.52 165.15 118.77Q165.42 118.00 165.86 117.23Q166.30 116.48 166.91 116.03Q167.52 115.59 168.40 115.31Q169.27 115.02 170.40 115.02Q171.50 115.02 172.37 115.31Q173.25 115.59 173.86 116.03Q174.47 116.48 174.94 117.23Q175.38 118.00 175.62 118.77Q175.89 119.55 176.04 120.65Q176.18 121.75 176.21 122.71Q176.26 123.67 176.26 124.98Q176.26 125.92 176.21 126.70Q176.16 127.45 175.99 128.34Q175.84 129.23 175.60 129.91Q175.35 130.56 174.89 131.20Q174.42 131.83 173.84 132.25Q173.25 132.67 172.40 132.93Q171.54 133.19 170.49 133.19M166.74 123.06L166.74 124.98Q166.74 126.04 166.78 126.79Q166.86 127.54 167.08 128.41Q167.27 129.27 167.66 129.81Q168.05 130.38 168.74 130.75Q169.42 131.10 170.40 131.10L170.91 131.10Q171.59 131.10 172.13 130.84Q172.67 130.56 172.98 130.05Q173.33 129.55 173.55 128.99Q173.77 128.41 173.86 127.68Q173.99 126.93 174.01 126.32Q174.06 125.71 174.06 124.98L174.06 123.91Q174.06 123.18 174.03 122.76Q174.03 122.31 174.01 121.66Q173.99 120.98 173.91 120.60Q173.84 120.20 173.72 119.67Q173.59 119.13 173.40 118.80Q173.20 118.47 172.94 118.12Q172.64 117.77 172.30 117.58Q171.93 117.37 171.45 117.25Q170.98 117.13 170.40 117.13Q169.79 117.13 169.30 117.27Q168.83 117.39 168.47 117.63Q168.10 117.86 167.81 118.21Q167.54 118.54 167.35 118.96Q167.15 119.36 167.03 119.85Q166.91 120.32 166.86 120.86Q166.81 121.38 166.76 121.94Q166.74 122.48 166.74 123.06ZM181.86 116.92Q181.54 116.59 181.54 116.15Q181.54 115.70 181.86 115.40Q182.17 115.10 182.64 115.10L192.16 115.10Q192.62 115.10 192.94 115.42Q193.26 115.73 193.26 116.15Q193.26 117.93 191.82 120.02Q191.38 120.67 190.11 122.20Q188.84 123.74 188.30 124.70Q186.71 127.52 186.71 132.04Q186.71 132.48 186.40 132.81Q186.08 133.12 185.66 133.12Q185.25 133.12 184.93 132.81Q184.61 132.51 184.61 132.04Q184.61 126.93 186.47 123.63Q187.03 122.66 188.30 121.05Q189.59 119.41 190.01 118.80Q190.59 117.86 190.81 117.39L190.86 117.23L182.64 117.23Q182.20 117.23 181.86 116.92ZM200.25 131.66Q198.61 130.14 198.54 127.63L198.54 127.35Q198.54 124.42 200.22 121.75Q200.91 120.65 201.88 119.43Q202.83 118.19 203.49 117.46Q204.15 116.71 205.37 115.38Q205.64 115.07 206.13 115.07Q206.55 115.07 206.86 115.40Q207.18 115.70 207.18 116.13Q207.18 116.52 206.91 116.85Q204.15 119.85 202.86 121.66L202.69 121.89L202.96 121.84Q203.66 121.70 204.40 121.70Q207.06 121.70 208.64 123.30Q210.26 124.91 210.26 127.63Q210.26 130.09 208.60 131.64Q206.94 133.19 204.40 133.19Q201.86 133.19 200.25 131.66M201.71 124.84Q200.74 125.85 200.74 127.63Q200.74 129.23 201.76 130.16Q202.76 131.08 204.40 131.08Q206.01 131.08 207.01 130.14Q208.06 129.20 208.06 127.63Q208.06 125.81 207.11 124.82Q206.18 123.81 204.40 123.81Q202.66 123.81 201.71 124.84ZM216.61 120.49Q216.29 120.16 216.29 119.74Q216.29 119.24 216.61 119.01L221.08 115.33Q221.40 115.07 221.79 115.07L222.57 115.07Q223.01 115.07 223.33 115.40Q223.67 115.70 223.67 116.13L223.67 132.06Q223.67 132.48 223.33 132.81Q223.01 133.12 222.57 133.12Q222.13 133.12 221.79 132.81Q221.47 132.51 221.47 132.06L221.47 117.79L218.13 120.53Q217.81 120.79 217.39 120.79Q216.93 120.79 216.61 120.49ZM233.05 132.30Q232.54 131.92 232.54 131.36Q232.54 130.91 232.86 130.61Q233.20 130.28 233.64 130.28Q233.78 130.28 234.05 130.38Q235.61 131.05 237.32 131.05Q239.18 131.05 240.45 130.16Q241.74 129.25 241.84 127.52L241.84 127.28Q241.84 126.09 241.06 125.24Q240.33 124.42 239.25 124.07Q238.20 123.74 236.91 123.74Q236.49 123.74 236.18 123.44Q235.86 123.11 235.86 122.66Q235.86 122.24 236.08 122.01L240.57 117.23L233.71 117.23Q233.27 117.23 232.93 116.92Q232.61 116.59 232.61 116.15Q232.61 115.70 232.93 115.40Q233.25 115.10 233.71 115.10L242.33 115.10Q242.77 115.10 243.08 115.42Q243.43 115.73 243.43 116.15L243.43 116.99Q243.43 117.37 243.08 117.70L239.15 121.84L239.35 121.89Q241.42 122.41 242.74 123.79Q244.04 125.17 244.04 127.26L244.04 127.63Q243.91 130.19 241.96 131.69Q240.06 133.19 237.32 133.19Q236.64 133.19 235.96 133.12Q235.27 133.05 234.42 132.88Q233.56 132.70 233.05 132.30ZM250.05 132.30Q249.54 131.92 249.54 131.36Q249.54 130.91 249.86 130.61Q250.20 130.28 250.64 130.28Q250.78 130.28 251.05 130.38Q252.61 131.05 254.32 131.05Q256.18 131.05 257.45 130.16Q258.74 129.25 258.84 127.52L258.84 127.28Q258.84 126.09 258.06 125.24Q257.33 124.42 256.25 124.07Q255.20 123.74 253.91 123.74Q253.49 123.74 253.18 123.44Q252.86 123.11 252.86 122.66Q252.86 122.24 253.08 122.01L257.57 117.23L250.71 117.23Q250.27 117.23 249.93 116.92Q249.61 116.59 249.61 116.15Q249.61 115.70 249.93 115.40Q250.25 115.10 250.71 115.10L259.33 115.10Q259.77 115.10 260.08 115.42Q260.43 115.73 260.43 116.15L260.43 116.99Q260.43 117.37 260.08 117.70L256.15 121.84L256.35 121.89Q258.42 122.41 259.74 123.79Q261.04 125.17 261.04 127.26L261.04 127.63Q260.91 130.19 258.96 131.69Q257.06 133.19 254.32 133.19Q253.64 133.19 252.96 133.12Q252.27 133.05 251.42 132.88Q250.56 132.70 250.05 132.30ZM267.27 118.02Q266.95 117.70 266.95 117.30Q266.95 116.71 267.42 116.41Q269.64 115.00 272.40 115.00Q274.62 115.00 276.11 116.36Q277.62 117.70 277.62 119.88Q277.62 120.74 277.30 121.54Q276.99 122.36 276.57 122.88Q276.18 123.39 275.40 124.02Q274.62 124.66 274.20 124.94Q273.81 125.22 272.96 125.76Q272.03 126.34 271.62 126.65Q271.20 126.95 270.61 127.56Q270.03 128.15 269.76 128.90Q269.49 129.63 269.44 130.63L269.44 130.75L276.67 130.75Q277.13 130.75 277.45 131.08Q277.77 131.38 277.77 131.80Q277.77 132.23 277.43 132.55Q277.11 132.86 276.67 132.86L268.32 132.86Q267.88 132.86 267.54 132.55Q267.22 132.23 267.22 131.80L267.22 131.31Q267.22 129.48 267.47 128.69Q267.88 127.28 269.03 126.18Q270.18 125.06 271.84 123.98Q274.13 122.50 274.74 121.66Q275.42 120.81 275.42 119.88Q275.42 118.63 274.52 117.86Q273.67 117.11 272.40 117.11Q270.20 117.11 268.69 118.14Q268.42 118.33 268.05 118.33Q267.61 118.33 267.27 118.02ZM283.86 116.92Q283.54 116.59 283.54 116.15Q283.54 115.70 283.86 115.40Q284.17 115.10 284.64 115.10L294.16 115.10Q294.62 115.10 294.94 115.42Q295.26 115.73 295.26 116.15Q295.26 117.93 293.82 120.02Q293.38 120.67 292.11 122.20Q290.84 123.74 290.30 124.70Q288.71 127.52 288.71 132.04Q288.71 132.48 288.40 132.81Q288.08 133.12 287.66 133.12Q287.25 133.12 286.93 132.81Q286.61 132.51 286.61 132.04Q286.61 126.93 288.47 123.63Q289.03 122.66 290.30 121.05Q291.59 119.41 292.01 118.80Q292.59 117.86 292.81 117.39L292.86 117.23L284.64 117.23Q284.20 117.23 283.86 116.92ZM300.86 128.73Q300.54 128.43 300.54 127.98L300.54 126.98Q300.54 126.79 300.66 126.53L305.86 115.68Q305.96 115.42 306.23 115.26Q306.49 115.07 306.79 115.07Q307.23 115.07 307.54 115.40Q307.86 115.70 307.86 116.13Q307.86 116.36 307.74 116.57L302.86 126.93L307.62 126.93L307.62 124.09Q307.62 123.67 307.93 123.37Q308.25 123.04 308.67 123.04Q309.08 123.04 309.40 123.37Q309.74 123.67 309.74 124.09L309.74 126.93L311.16 126.93Q311.62 126.93 311.94 127.26Q312.26 127.56 312.26 127.98Q312.26 128.41 311.91 128.73Q311.60 129.04 311.16 129.04L309.74 129.04L309.74 132.06Q309.74 132.48 309.40 132.79Q309.08 133.12 308.67 133.12Q308.25 133.12 307.93 132.81Q307.62 132.48 307.62 132.06L307.62 129.04L301.64 129.04Q301.20 129.04 300.86 128.73ZM320.81 118.26Q319.74 119.38 319.74 120.95Q319.74 122.48 320.76 123.44Q321.74 124.38 323.40 124.38Q326.30 124.38 326.81 122.66Q327.06 121.89 327.06 120.95Q327.06 119.20 326.03 118.17Q325.03 117.11 323.40 117.11Q321.86 117.11 320.81 118.26M319.20 124.89Q317.54 123.32 317.54 120.95Q317.54 118.52 319.30 116.76Q321.00 115.00 323.40 115.00Q325.86 115.00 327.55 116.64Q329.26 118.28 329.26 120.95Q329.26 122.62 328.74 123.95Q328.23 125.29 327.30 126.84Q325.28 130.23 322.35 132.84Q322.03 133.12 321.66 133.12Q321.25 133.12 320.93 132.81Q320.61 132.51 320.61 132.06Q320.61 131.62 320.96 131.29Q323.27 129.16 324.93 126.58L325.06 126.34L324.81 126.39Q324.18 126.48 323.40 126.48Q320.81 126.48 319.20 124.89ZM338.49 117.58Q337.57 118.05 337.57 118.94Q337.57 119.52 337.78 119.97Q338.00 120.41 338.52 120.79Q339.01 121.14 339.32 121.33Q339.66 121.52 340.35 121.84L340.40 121.84L340.45 121.84Q341.13 121.54 341.47 121.35Q341.81 121.16 342.30 120.81Q342.79 120.44 343.01 119.99Q343.23 119.52 343.23 118.94Q343.23 118.05 342.30 117.58Q341.40 117.11 340.40 117.11Q339.40 117.11 338.49 117.58M340.40 124.26Q336.71 126.11 336.71 128.31Q336.71 129.63 337.81 130.35Q338.83 131.08 340.40 131.08L340.89 131.08Q342.18 131.08 343.11 130.26Q344.06 129.44 344.06 128.31Q344.06 126.09 340.49 124.26L340.45 124.21L340.40 124.26M336.22 131.83Q334.54 130.47 334.54 128.31Q334.54 125.48 338.00 123.18L338.15 123.09L338.00 122.99Q335.37 121.45 335.37 118.94Q335.37 117.23 336.93 116.13Q338.47 115.00 340.40 115.00Q342.30 115.00 343.86 116.13Q345.43 117.25 345.43 118.94Q345.43 120.32 344.74 121.28Q344.03 122.22 342.79 122.99L342.64 123.09L342.79 123.18Q346.26 125.48 346.26 128.31Q346.26 130.16 344.84 131.59Q343.42 133.02 341.42 133.19L340.40 133.19Q337.88 133.19 336.22 131.83ZM352.61 120.49Q352.29 120.16 352.29 119.74Q352.29 119.24 352.61 119.01L357.08 115.33Q357.40 115.07 357.79 115.07L358.57 115.07Q359.01 115.07 359.33 115.40Q359.67 115.70 359.67 116.13L359.67 132.06Q359.67 132.48 359.33 132.81Q359.01 133.12 358.57 133.12Q358.13 133.12 357.79 132.81Q357.47 132.51 357.47 132.06L357.47 117.79L354.13 120.53Q353.81 120.79 353.39 120.79Q352.93 120.79 352.61 120.49ZM369.61 120.49Q369.29 120.16 369.29 119.74Q369.29 119.24 369.61 119.01L374.08 115.33Q374.40 115.07 374.79 115.07L375.57 115.07Q376.01 115.07 376.33 115.40Q376.67 115.70 376.67 116.13L376.67 132.06Q376.67 132.48 376.33 132.81Q376.01 133.12 375.57 133.12Q375.13 133.12 374.79 132.81Q374.47 132.51 374.47 132.06L374.47 117.79L371.13 120.53Q370.81 120.79 370.39 120.79Q369.93 120.79 369.61 120.49ZM391.49 133.19L391.40 133.19Q389.96 133.16 388.88 132.72Q387.81 132.30 387.17 131.62Q386.54 130.91 386.17 129.81Q385.78 128.71 385.66 127.59Q385.54 126.48 385.54 124.98Q385.54 123.65 385.56 122.71Q385.61 121.75 385.76 120.65Q385.90 119.52 386.15 118.77Q386.42 118.00 386.86 117.23Q387.30 116.48 387.91 116.03Q388.52 115.59 389.40 115.31Q390.27 115.02 391.40 115.02Q392.50 115.02 393.37 115.31Q394.25 115.59 394.86 116.03Q395.47 116.48 395.94 117.23Q396.38 118.00 396.62 118.77Q396.89 119.55 397.04 120.65Q397.18 121.75 397.21 122.71Q397.26 123.67 397.26 124.98Q397.26 125.92 397.21 126.70Q397.16 127.45 396.99 128.34Q396.84 129.23 396.60 129.91Q396.35 130.56 395.89 131.20Q395.42 131.83 394.84 132.25Q394.25 132.67 393.40 132.93Q392.54 133.19 391.49 133.19M387.74 123.06L387.74 124.98Q387.74 126.04 387.78 126.79Q387.86 127.54 388.08 128.41Q388.27 129.27 388.66 129.81Q389.05 130.38 389.74 130.75Q390.42 131.10 391.40 131.10L391.91 131.10Q392.59 131.10 393.13 130.84Q393.67 130.56 393.98 130.05Q394.33 129.55 394.55 128.99Q394.77 128.41 394.86 127.68Q394.99 126.93 395.01 126.32Q395.06 125.71 395.06 124.98L395.06 123.91Q395.06 123.18 395.03 122.76Q395.03 122.31 395.01 121.66Q394.99 120.98 394.91 120.60Q394.84 120.20 394.72 119.67Q394.59 119.13 394.40 118.80Q394.20 118.47 393.94 118.12Q393.64 117.77 393.30 117.58Q392.93 117.37 392.45 117.25Q391.98 117.13 391.40 117.13Q390.79 117.13 390.30 117.27Q389.83 117.39 389.47 117.63Q389.10 117.86 388.81 118.21Q388.54 118.54 388.35 118.96Q388.15 119.36 388.03 119.85Q387.91 120.32 387.86 120.86Q387.81 121.38 387.76 121.94Q387.74 122.48 387.74 123.06ZM406.15 124.31L406.15 124.16Q406.22 118.54 411.23 115.19Q411.50 115.00 411.84 115.00Q412.28 115.00 412.60 115.31Q412.94 115.61 412.94 116.06Q412.94 116.59 412.45 116.92Q410.55 118.12 409.47 119.85Q408.37 121.61 408.35 124.16L408.35 124.28Q408.35 128.73 412.45 131.24Q412.94 131.57 412.94 132.13Q412.94 132.58 412.60 132.88Q412.28 133.19 411.84 133.19Q411.50 133.19 411.23 133.02Q406.15 129.74 406.15 124.31ZM420.61 120.49Q420.29 120.16 420.29 119.74Q420.29 119.24 420.61 119.01L425.08 115.33Q425.40 115.07 425.79 115.07L426.57 115.07Q427.01 115.07 427.33 115.40Q427.67 115.70 427.67 116.13L427.67 132.06Q427.67 132.48 427.33 132.81Q427.01 133.12 426.57 133.12Q426.13 133.12 425.79 132.81Q425.47 132.51 425.47 132.06L425.47 117.79L422.13 120.53Q421.81 120.79 421.39 120.79Q420.93 120.79 420.61 120.49ZM436.86 116.92Q436.54 116.59 436.54 116.15Q436.54 115.70 436.86 115.40Q437.17 115.10 437.64 115.10L447.16 115.10Q447.62 115.10 447.94 115.42Q448.26 115.73 448.26 116.15Q448.26 117.93 446.82 120.02Q446.38 120.67 445.11 122.20Q443.84 123.74 443.30 124.70Q441.71 127.52 441.71 132.04Q441.71 132.48 441.40 132.81Q441.08 133.12 440.66 133.12Q440.25 133.12 439.93 132.81Q439.61 132.51 439.61 132.04Q439.61 126.93 441.47 123.63Q442.03 122.66 443.30 121.05Q444.59 119.41 445.01 118.80Q445.59 117.86 445.81 117.39L445.86 117.23L437.64 117.23Q437.20 117.23 436.86 116.92ZM455.32 132.13Q455.32 131.57 455.81 131.24Q459.93 128.66 459.93 124.16Q459.93 119.62 455.81 116.92L455.78 116.90Q455.61 116.85 455.47 116.57Q455.32 116.29 455.32 116.06Q455.32 115.63 455.64 115.33Q455.98 115.00 456.42 115.00Q456.76 115.00 457.03 115.19Q462.13 118.56 462.13 124.16Q462.13 129.70 457.03 133.02Q456.76 133.19 456.42 133.19Q455.98 133.19 455.64 132.88Q455.32 132.55 455.32 132.13ZM471.27 118.02Q470.95 117.70 470.95 117.30Q470.95 116.71 471.42 116.41Q473.64 115.00 476.40 115.00Q478.62 115.00 480.11 116.36Q481.62 117.70 481.62 119.88Q481.62 120.74 481.30 121.54Q480.99 122.36 480.57 122.88Q480.18 123.39 479.40 124.02Q478.62 124.66 478.20 124.94Q477.81 125.22 476.96 125.76Q476.03 126.34 475.62 126.65Q475.20 126.95 474.61 127.56Q474.03 128.15 473.76 128.90Q473.49 129.63 473.44 130.63L473.44 130.75L480.67 130.75Q481.13 130.75 481.45 131.08Q481.77 131.38 481.77 131.80Q481.77 132.23 481.43 132.55Q481.11 132.86 480.67 132.86L472.32 132.86Q471.88 132.86 471.54 132.55Q471.22 132.23 471.22 131.80L471.22 131.31Q471.22 129.48 471.47 128.69Q471.88 127.28 473.03 126.18Q474.18 125.06 475.84 123.98Q478.13 122.50 478.74 121.66Q479.42 120.81 479.42 119.88Q479.42 118.63 478.52 117.86Q477.67 117.11 476.40 117.11Q474.20 117.11 472.69 118.14Q472.42 118.33 472.05 118.33Q471.61 118.33 471.27 118.02ZM491.49 117.58Q490.57 118.05 490.57 118.94Q490.57 119.52 490.78 119.97Q491.00 120.41 491.52 120.79Q492.01 121.14 492.32 121.33Q492.66 121.52 493.35 121.84L493.40 121.84L493.45 121.84Q494.13 121.54 494.47 121.35Q494.81 121.16 495.30 120.81Q495.79 120.44 496.01 119.99Q496.23 119.52 496.23 118.94Q496.23 118.05 495.30 117.58Q494.40 117.11 493.40 117.11Q492.40 117.11 491.49 117.58M493.40 124.26Q489.71 126.11 489.71 128.31Q489.71 129.63 490.81 130.35Q491.83 131.08 493.40 131.08L493.89 131.08Q495.18 131.08 496.11 130.26Q497.06 129.44 497.06 128.31Q497.06 126.09 493.49 124.26L493.45 124.21L493.40 124.26M489.22 131.83Q487.54 130.47 487.54 128.31Q487.54 125.48 491.00 123.18L491.15 123.09L491.00 122.99Q488.37 121.45 488.37 118.94Q488.37 117.23 489.93 116.13Q491.47 115.00 493.40 115.00Q495.30 115.00 496.86 116.13Q498.43 117.25 498.43 118.94Q498.43 120.32 497.74 121.28Q497.03 122.22 495.79 122.99L495.64 123.09L495.79 123.18Q499.26 125.48 499.26 128.31Q499.26 130.16 497.84 131.59Q496.42 133.02 494.42 133.19L493.40 133.19Q490.88 133.19 489.22 131.83ZM510.49 133.19L510.40 133.19Q508.96 133.16 507.88 132.72Q506.81 132.30 506.17 131.62Q505.54 130.91 505.17 129.81Q504.78 128.71 504.66 127.59Q504.54 126.48 504.54 124.98Q504.54 123.65 504.56 122.71Q504.61 121.75 504.76 120.65Q504.90 119.52 505.15 118.77Q505.42 118.00 505.86 117.23Q506.30 116.48 506.91 116.03Q507.52 115.59 508.40 115.31Q509.27 115.02 510.40 115.02Q511.50 115.02 512.37 115.31Q513.25 115.59 513.86 116.03Q514.47 116.48 514.94 117.23Q515.38 118.00 515.62 118.77Q515.89 119.55 516.04 120.65Q516.18 121.75 516.21 122.71Q516.26 123.67 516.26 124.98Q516.26 125.92 516.21 126.70Q516.16 127.45 515.99 128.34Q515.84 129.23 515.60 129.91Q515.35 130.56 514.89 131.20Q514.42 131.83 513.84 132.25Q513.25 132.67 512.40 132.93Q511.54 133.19 510.49 133.19M506.74 123.06L506.74 124.98Q506.74 126.04 506.78 126.79Q506.86 127.54 507.08 128.41Q507.27 129.27 507.66 129.81Q508.05 130.38 508.74 130.75Q509.42 131.10 510.40 131.10L510.91 131.10Q511.59 131.10 512.13 130.84Q512.67 130.56 512.98 130.05Q513.33 129.55 513.55 128.99Q513.77 128.41 513.86 127.68Q513.99 126.93 514.01 126.32Q514.06 125.71 514.06 124.98L514.06 123.91Q514.06 123.18 514.03 122.76Q514.03 122.31 514.01 121.66Q513.99 120.98 513.91 120.60Q513.84 120.20 513.72 119.67Q513.59 119.13 513.40 118.80Q513.20 118.47 512.94 118.12Q512.64 117.77 512.30 117.58Q511.93 117.37 511.45 117.25Q510.98 117.13 510.40 117.13Q509.79 117.13 509.30 117.27Q508.83 117.39 508.47 117.63Q508.10 117.86 507.81 118.21Q507.54 118.54 507.35 118.96Q507.15 119.36 507.03 119.85Q506.91 120.32 506.86 120.86Q506.81 121.38 506.76 121.94Q506.74 122.48 506.74 123.06ZM522.61 120.49Q522.29 120.16 522.29 119.74Q522.29 119.24 522.61 119.01L527.08 115.33Q527.40 115.07 527.79 115.07L528.57 115.07Q529.01 115.07 529.33 115.40Q529.67 115.70 529.67 116.13L529.67 132.06Q529.67 132.48 529.33 132.81Q529.01 133.12 528.57 133.12Q528.13 133.12 527.79 132.81Q527.47 132.51 527.47 132.06L527.47 117.79L524.13 120.53Q523.81 120.79 523.39 120.79Q522.93 120.79 522.61 120.49ZM544.49 133.19L544.40 133.19Q542.96 133.16 541.88 132.72Q540.81 132.30 540.17 131.62Q539.54 130.91 539.17 129.81Q538.78 128.71 538.66 127.59Q538.54 126.48 538.54 124.98Q538.54 123.65 538.56 122.71Q538.61 121.75 538.76 120.65Q538.90 119.52 539.15 118.77Q539.42 118.00 539.86 117.23Q540.30 116.48 540.91 116.03Q541.52 115.59 542.40 115.31Q543.27 115.02 544.40 115.02Q545.50 115.02 546.37 115.31Q547.25 115.59 547.86 116.03Q548.47 116.48 548.94 117.23Q549.38 118.00 549.62 118.77Q549.89 119.55 550.04 120.65Q550.18 121.75 550.21 122.71Q550.26 123.67 550.26 124.98Q550.26 125.92 550.21 126.70Q550.16 127.45 549.99 128.34Q549.84 129.23 549.60 129.91Q549.35 130.56 548.89 131.20Q548.42 131.83 547.84 132.25Q547.25 132.67 546.40 132.93Q545.54 133.19 544.49 133.19M540.74 123.06L540.74 124.98Q540.74 126.04 540.78 126.79Q540.86 127.54 541.08 128.41Q541.27 129.27 541.66 129.81Q542.05 130.38 542.74 130.75Q543.42 131.10 544.40 131.10L544.91 131.10Q545.59 131.10 546.13 130.84Q546.67 130.56 546.98 130.05Q547.33 129.55 547.55 128.99Q547.77 128.41 547.86 127.68Q547.99 126.93 548.01 126.32Q548.06 125.71 548.06 124.98L548.06 123.91Q548.06 123.18 548.03 122.76Q548.03 122.31 548.01 121.66Q547.99 120.98 547.91 120.60Q547.84 120.20 547.72 119.67Q547.59 119.13 547.40 118.80Q547.20 118.47 546.94 118.12Q546.64 117.77 546.30 117.58Q545.93 117.37 545.45 117.25Q544.98 117.13 544.40 117.13Q543.79 117.13 543.30 117.27Q542.83 117.39 542.47 117.63Q542.10 117.86 541.81 118.21Q541.54 118.54 541.35 118.96Q541.15 119.36 541.03 119.85Q540.91 120.32 540.86 120.86Q540.81 121.38 540.76 121.94Q540.74 122.48 540.74 123.06ZM556.61 120.49Q556.29 120.16 556.29 119.74Q556.29 119.24 556.61 119.01L561.08 115.33Q561.40 115.07 561.79 115.07L562.57 115.07Q563.01 115.07 563.33 115.40Q563.67 115.70 563.67 116.13L563.67 132.06Q563.67 132.48 563.33 132.81Q563.01 133.12 562.57 133.12Q562.13 133.12 561.79 132.81Q561.47 132.51 561.47 132.06L561.47 117.79L558.13 120.53Q557.81 120.79 557.39 120.79Q556.93 120.79 556.61 120.49ZM576.15 124.31L576.15 124.16Q576.22 118.54 581.23 115.19Q581.50 115.00 581.84 115.00Q582.28 115.00 582.60 115.31Q582.94 115.61 582.94 116.06Q582.94 116.59 582.45 116.92Q580.55 118.12 579.47 119.85Q578.37 121.61 578.35 124.16L578.35 124.28Q578.35 128.73 582.45 131.24Q582.94 131.57 582.94 132.13Q582.94 132.58 582.60 132.88Q582.28 133.19 581.84 133.19Q581.50 133.19 581.23 133.02Q576.15 129.74 576.15 124.31ZM590.61 120.49Q590.29 120.16 590.29 119.74Q590.29 119.24 590.61 119.01L595.08 115.33Q595.40 115.07 595.79 115.07L596.57 115.07Q597.01 115.07 597.33 115.40Q597.67 115.70 597.67 116.13L597.67 132.06Q597.67 132.48 597.33 132.81Q597.01 133.12 596.57 133.12Q596.13 133.12 595.79 132.81Q595.47 132.51 595.47 132.06L595.47 117.79L592.13 120.53Q591.81 120.79 591.39 120.79Q590.93 120.79 590.61 120.49ZM612.49 133.19L612.40 133.19Q610.96 133.16 609.88 132.72Q608.81 132.30 608.17 131.62Q607.54 130.91 607.17 129.81Q606.78 128.71 606.66 127.59Q606.54 126.48 606.54 124.98Q606.54 123.65 606.56 122.71Q606.61 121.75 606.76 120.65Q606.90 119.52 607.15 118.77Q607.42 118.00 607.86 117.23Q608.30 116.48 608.91 116.03Q609.52 115.59 610.40 115.31Q611.27 115.02 612.40 115.02Q613.50 115.02 614.37 115.31Q615.25 115.59 615.86 116.03Q616.47 116.48 616.94 117.23Q617.38 118.00 617.62 118.77Q617.89 119.55 618.04 120.65Q618.18 121.75 618.21 122.71Q618.26 123.67 618.26 124.98Q618.26 125.92 618.21 126.70Q618.16 127.45 617.99 128.34Q617.84 129.23 617.60 129.91Q617.35 130.56 616.89 131.20Q616.42 131.83 615.84 132.25Q615.25 132.67 614.40 132.93Q613.54 133.19 612.49 133.19M608.74 123.06L608.74 124.98Q608.74 126.04 608.78 126.79Q608.86 127.54 609.08 128.41Q609.27 129.27 609.66 129.81Q610.05 130.38 610.74 130.75Q611.42 131.10 612.40 131.10L612.91 131.10Q613.59 131.10 614.13 130.84Q614.67 130.56 614.98 130.05Q615.33 129.55 615.55 128.99Q615.77 128.41 615.86 127.68Q615.99 126.93 616.01 126.32Q616.06 125.71 616.06 124.98L616.06 123.91Q616.06 123.18 616.03 122.76Q616.03 122.31 616.01 121.66Q615.99 120.98 615.91 120.60Q615.84 120.20 615.72 119.67Q615.59 119.13 615.40 118.80Q615.20 118.47 614.94 118.12Q614.64 117.77 614.30 117.58Q613.93 117.37 613.45 117.25Q612.98 117.13 612.40 117.13Q611.79 117.13 611.30 117.27Q610.83 117.39 610.47 117.63Q610.10 117.86 609.81 118.21Q609.54 118.54 609.35 118.96Q609.15 119.36 609.03 119.85Q608.91 120.32 608.86 120.86Q608.81 121.38 608.76 121.94Q608.74 122.48 608.74 123.06ZM625.32 132.13Q625.32 131.57 625.81 131.24Q629.93 128.66 629.93 124.16Q629.93 119.62 625.81 116.92L625.78 116.90Q625.61 116.85 625.47 116.57Q625.32 116.29 625.32 116.06Q625.32 115.63 625.64 115.33Q625.98 115.00 626.42 115.00Q626.76 115.00 627.03 115.19Q632.13 118.56 632.13 124.16Q632.13 129.70 627.03 133.02Q626.76 133.19 626.42 133.19Q625.98 133.19 625.64 132.88Q625.32 132.55 625.32 132.13ZM641.56 132.39Q641.22 132.04 641.22 131.57L641.22 115.99Q641.22 115.52 641.54 115.19Q641.88 114.84 642.32 114.84Q642.76 114.84 643.08 115.19Q643.42 115.52 643.42 115.99L643.42 130.40L651.16 130.40Q651.62 130.40 651.94 130.75Q652.26 131.10 652.26 131.57Q652.26 132.04 651.91 132.39Q651.60 132.74 651.16 132.74L642.32 132.74Q641.88 132.74 641.56 132.39ZM658.03 127.38Q657.61 125.73 657.61 124.07L657.61 124.00Q657.61 122.74 657.81 121.47Q658.03 120.18 658.49 118.99Q658.95 117.77 659.66 116.85Q660.32 115.94 661.30 115.40Q662.25 114.84 663.40 114.84Q664.69 114.84 665.79 115.63Q666.91 116.41 667.64 117.72Q668.38 119.03 668.77 120.67Q669.18 122.29 669.18 124.00L669.18 124.07Q669.18 125.73 668.77 127.38Q668.38 128.99 667.67 130.35Q666.94 131.69 665.81 132.51Q664.72 133.33 663.40 133.33Q662.10 133.33 661.00 132.51Q659.88 131.69 659.15 130.35Q658.44 128.99 658.03 127.38M660.00 121.82Q659.81 122.95 659.81 123.98L659.81 124.07Q659.81 125.15 660.03 126.30Q660.25 127.45 660.66 128.50Q661.08 129.60 661.79 130.30Q662.52 131.03 663.40 131.03Q664.28 131.03 665.01 130.30Q665.72 129.60 666.13 128.50Q666.55 127.45 666.77 126.30Q666.99 125.13 666.99 124.07Q666.99 122.92 666.77 121.75Q666.57 120.58 666.16 119.52Q665.74 118.47 665.03 117.79Q664.30 117.11 663.40 117.11Q662.49 117.11 661.74 117.81Q661.03 118.52 660.64 119.62Q660.22 120.67 660.00 121.82ZM674.88 117.20Q674.54 116.85 674.54 116.36Q674.54 115.87 674.86 115.52Q675.17 115.19 675.64 115.19L685.16 115.19Q685.62 115.19 685.94 115.54Q686.26 115.89 686.26 116.38Q686.26 116.85 685.91 117.20Q685.60 117.56 685.16 117.56L681.45 117.56L681.45 132.09Q681.45 132.55 681.13 132.91Q680.81 133.26 680.40 133.26Q679.98 133.26 679.66 132.93Q679.35 132.58 679.35 132.09L679.35 117.56L675.64 117.56Q675.20 117.56 674.88 117.20ZM692.27 118.02Q691.95 117.70 691.95 117.30Q691.95 116.71 692.42 116.41Q694.64 115.00 697.40 115.00Q699.62 115.00 701.11 116.36Q702.62 117.70 702.62 119.88Q702.62 120.74 702.30 121.54Q701.99 122.36 701.57 122.88Q701.18 123.39 700.40 124.02Q699.62 124.66 699.20 124.94Q698.81 125.22 697.96 125.76Q697.03 126.34 696.62 126.65Q696.20 126.95 695.61 127.56Q695.03 128.15 694.76 128.90Q694.49 129.63 694.44 130.63L694.44 130.75L701.67 130.75Q702.13 130.75 702.45 131.08Q702.77 131.38 702.77 131.80Q702.77 132.23 702.43 132.55Q702.11 132.86 701.67 132.86L693.32 132.86Q692.88 132.86 692.54 132.55Q692.22 132.23 692.22 131.80L692.22 131.31Q692.22 129.48 692.47 128.69Q692.88 127.28 694.03 126.18Q695.18 125.06 696.84 123.98Q699.13 122.50 699.74 121.66Q700.42 120.81 700.42 119.88Q700.42 118.63 699.52 117.86Q698.67 117.11 697.40 117.11Q695.20 117.11 693.69 118.14Q693.42 118.33 693.05 118.33Q692.61 118.33 692.27 118.02ZM708.86 128.73Q708.54 128.43 708.54 127.98L708.54 126.98Q708.54 126.79 708.66 126.53L713.86 115.68Q713.96 115.42 714.23 115.26Q714.49 115.07 714.79 115.07Q715.23 115.07 715.54 115.40Q715.86 115.70 715.86 116.13Q715.86 116.36 715.74 116.57L710.86 126.93L715.62 126.93L715.62 124.09Q715.62 123.67 715.93 123.37Q716.25 123.04 716.67 123.04Q717.08 123.04 717.40 123.37Q717.74 123.67 717.74 124.09L717.74 126.93L719.16 126.93Q719.62 126.93 719.94 127.26Q720.26 127.56 720.26 127.98Q720.26 128.41 719.91 128.73Q719.60 129.04 719.16 129.04L717.74 129.04L717.74 132.06Q717.74 132.48 717.40 132.79Q717.08 133.12 716.67 133.12Q716.25 133.12 715.93 132.81Q715.62 132.48 715.62 132.06L715.62 129.04L709.64 129.04Q709.20 129.04 708.86 128.73ZM726.00 132.93Q725.68 132.58 725.68 132.09L725.68 131.76L729.57 116.06Q729.66 115.73 729.96 115.49Q730.25 115.24 730.59 115.24L732.20 115.24Q732.52 115.24 732.79 115.45Q733.08 115.63 733.15 115.92L737.13 132.11Q737.13 132.55 736.79 132.91Q736.45 133.26 736.01 133.26Q735.64 133.26 735.33 133.02Q735.03 132.77 734.96 132.41L733.86 127.84L728.91 127.84L727.83 132.41Q727.76 132.77 727.44 133.02Q727.15 133.26 726.78 133.26Q726.34 133.26 726.00 132.93M731.40 117.46L729.47 125.48L733.33 125.48L731.40 117.46Z" fill="#000000" />
</svg>
