<svg viewBox="0 0 570 279" xmlns="http://www.w3.org/2000/svg">
<rect width="100%" height="100%" fill="#FFFFFF" />
<path stroke="#000000" stroke-width="6" d="M21 240L21 18M54 240L54 18M87 240L87 18M204 240L204 18M252 240L252 18M261 240L261 18M276 240L276 18M300 240L300 18M336 240L336 18M384 240L384 18M438 240L438 18M468 240L468 18M516 240L516 18M549 240L549 18" />
<path stroke="#000000" stroke-width="3" d="M28.50 240L28.50 18M37.50 240L37.50 18M67.50 240L67.50 18M76.50 240L76.50 18M100.50 240L100.50 18M106.50 240L106.50 18M118.50 240L118.50 18M151.50 240L151.50 18M178.50 240L178.50 18M184.50 240L184.50 18M196.50 240L196.50 18M217.50 240L217.50 18M226.50 240L226.50 18M283.50 240L283.50 18M292.50 240L292.50 18M316.50 240L316.50 18M349.50 240L349.50 18M403.50 240L403.50 18M415.50 240L415.50 18M448.50 240L448.50 18M460.50 240L460.50 18M481.50 240L481.50 18M487.50 240L487.50 18M541.50 240L541.50 18" />
<path stroke="#000000" stroke-width="9" d="M127.50 240L127.50 18M325.50 240L325.50 18M373.50 240L373.50 18M394.50 240L394.50 18M427.50 240L427.50 18M532.50 240L532.50 18" />
<path stroke="#000000" stroke-width="12" d="M141 240L141 18M165 240L165 18M240 240L240 18M360 240L360 18M504 240L504 18" />
<path d="M142.66 251.09Q142.66 250.65 142.98 250.34Q143.32 250.04 143.76 250.04L147.54 250.04L147.54 245.75Q147.54 245.31 147.86 245.00Q148.18 244.70 148.64 244.70Q149.10 244.70 149.42 245.02Q149.74 245.33 149.74 245.75L149.74 250.04L153.52 250.04Q153.96 250.04 154.28 250.37Q154.62 250.67 154.62 251.09Q154.62 251.52 154.28 251.84Q153.96 252.15 153.52 252.15L149.74 252.15L149.74 256.46Q149.74 256.88 149.40 257.21Q149.08 257.52 148.64 257.52Q148.20 257.52 147.86 257.21Q147.54 256.91 147.54 256.46L147.54 252.15L143.76 252.15Q143.32 252.15 142.98 251.84Q142.66 251.54 142.66 251.09ZM160.54 259.93Q160.22 259.58 160.22 259.09L160.22 243.10Q160.22 242.61 160.56 242.26Q160.88 241.91 161.32 241.91Q161.76 241.91 162.08 242.26Q162.42 242.59 162.42 243.10L162.42 249.74L168.35 249.74L168.35 243.10Q168.35 242.61 168.69 242.26Q169.01 241.91 169.45 241.91Q169.89 241.91 170.21 242.26Q170.55 242.59 170.55 243.10L170.55 259.09Q170.55 259.58 170.21 259.93Q169.89 260.26 169.45 260.26Q169.01 260.26 168.67 259.93Q168.35 259.58 168.35 259.09L168.35 252.03L162.42 252.03L162.42 259.09Q162.42 259.58 162.08 259.93Q161.76 260.26 161.32 260.26Q160.88 260.26 160.54 259.93ZM180.49 244.58Q179.57 245.05 179.57 245.94Q179.57 246.52 179.78 246.97Q180.00 247.41 180.52 247.79Q181.01 248.14 181.32 248.33Q181.66 248.52 182.35 248.84L182.40 248.84L182.45 248.84Q183.13 248.54 183.47 248.35Q183.81 248.16 184.30 247.81Q184.79 247.44 185.01 246.99Q185.23 246.52 185.23 245.94Q185.23 245.05 184.30 244.58Q183.40 244.11 182.40 244.11Q181.40 244.11 180.49 244.58M182.40 251.26Q178.71 253.11 178.71 255.31Q178.71 256.63 179.81 257.35Q180.83 258.08 182.40 258.08L182.89 258.08Q184.18 258.08 185.11 257.26Q186.06 256.44 186.06 255.31Q186.06 253.09 182.49 251.26L182.45 251.21L182.40 251.26M178.22 258.83Q176.54 257.47 176.54 255.31Q176.54 252.48 180.00 250.18L180.15 250.09L180.00 249.99Q177.37 248.45 177.37 245.94Q177.37 244.23 178.93 243.13Q180.47 242.00 182.40 242.00Q184.30 242.00 185.86 243.13Q187.43 244.25 187.43 245.94Q187.43 247.32 186.74 248.28Q186.03 249.22 184.79 249.99L184.64 250.09L184.79 250.18Q188.26 252.48 188.26 255.31Q188.26 257.16 186.84 258.59Q185.42 260.02 183.42 260.19L182.40 260.19Q179.88 260.19 178.22 258.83ZM194.49 259.88Q194.17 259.58 194.17 259.13Q194.17 258.66 194.49 258.36Q194.83 258.05 195.27 258.05Q200.20 258.05 201.64 255.41Q202.08 254.61 202.08 253.88Q202.08 252.17 201.25 251.31Q200.15 250.06 197.40 250.06Q196.64 250.06 195.86 250.13L195.76 250.13Q195.32 250.13 194.98 249.85Q194.66 249.55 194.66 249.13L194.66 249.06L195.00 243.08Q195.05 242.66 195.34 242.38Q195.66 242.10 196.10 242.10L203.03 242.10Q203.50 242.10 203.82 242.42Q204.13 242.73 204.13 243.15Q204.13 243.57 203.79 243.90Q203.47 244.23 203.03 244.23L197.13 244.23L196.93 247.91L197.40 247.91Q200.50 247.91 202.38 249.43Q204.28 250.93 204.28 253.88Q204.28 255.13 203.72 256.20Q203.13 257.30 202.25 258.08Q199.91 260.19 195.27 260.19Q194.83 260.19 194.49 259.88M195.83 250.13Q195.83 250.13 195.86 250.13Q195.86 250.13 195.83 250.13ZM211.05 259.30Q210.54 258.92 210.54 258.36Q210.54 257.91 210.86 257.61Q211.20 257.28 211.64 257.28Q211.78 257.28 212.05 257.38Q213.61 258.05 215.32 258.05Q217.18 258.05 218.45 257.16Q219.74 256.25 219.84 254.52L219.84 254.28Q219.84 253.09 219.06 252.24Q218.33 251.42 217.25 251.07Q216.20 250.74 214.91 250.74Q214.49 250.74 214.18 250.44Q213.86 250.11 213.86 249.66Q213.86 249.24 214.08 249.01L218.57 244.23L211.71 244.23Q211.27 244.23 210.93 243.92Q210.61 243.59 210.61 243.15Q210.61 242.70 210.93 242.40Q211.25 242.10 211.71 242.10L220.33 242.10Q220.77 242.10 221.08 242.42Q221.43 242.73 221.43 243.15L221.43 243.99Q221.43 244.37 221.08 244.70L217.15 248.84L217.35 248.89Q219.42 249.41 220.74 250.79Q222.04 252.17 222.04 254.26L222.04 254.63Q221.91 257.19 219.96 258.69Q218.06 260.19 215.32 260.19Q214.64 260.19 213.96 260.12Q213.27 260.05 212.42 259.88Q211.56 259.70 211.05 259.30ZM227.86 255.73Q227.54 255.43 227.54 254.98L227.54 253.98Q227.54 253.79 227.66 253.53L232.86 242.68Q232.96 242.42 233.23 242.26Q233.49 242.07 233.79 242.07Q234.23 242.07 234.54 242.40Q234.86 242.70 234.86 243.13Q234.86 243.36 234.74 243.57L229.86 253.93L234.62 253.93L234.62 251.09Q234.62 250.67 234.93 250.37Q235.25 250.04 235.67 250.04Q236.08 250.04 236.40 250.37Q236.74 250.67 236.74 251.09L236.74 253.93L238.16 253.93Q238.62 253.93 238.94 254.26Q239.26 254.56 239.26 254.98Q239.26 255.41 238.91 255.73Q238.60 256.04 238.16 256.04L236.74 256.04L236.74 259.06Q236.74 259.48 236.40 259.79Q236.08 260.12 235.67 260.12Q235.25 260.12 234.93 259.81Q234.62 259.48 234.62 259.06L234.62 256.04L228.64 256.04Q228.20 256.04 227.86 255.73ZM248.49 244.58Q247.57 245.05 247.57 245.94Q247.57 246.52 247.78 246.97Q248.00 247.41 248.52 247.79Q249.01 248.14 249.32 248.33Q249.66 248.52 250.35 248.84L250.40 248.84L250.45 248.84Q251.13 248.54 251.47 248.35Q251.81 248.16 252.30 247.81Q252.79 247.44 253.01 246.99Q253.23 246.52 253.23 245.94Q253.23 245.05 252.30 244.58Q251.40 244.11 250.40 244.11Q249.40 244.11 248.49 244.58M250.40 251.26Q246.71 253.11 246.71 255.31Q246.71 256.63 247.81 257.35Q248.83 258.08 250.40 258.08L250.89 258.08Q252.18 258.08 253.11 257.26Q254.06 256.44 254.06 255.31Q254.06 253.09 250.49 251.26L250.45 251.21L250.40 251.26M246.22 258.83Q244.54 257.47 244.54 255.31Q244.54 252.48 248.00 250.18L248.15 250.09L248.00 249.99Q245.37 248.45 245.37 245.94Q245.37 244.23 246.93 243.13Q248.47 242.00 250.40 242.00Q252.30 242.00 253.86 243.13Q255.43 244.25 255.43 245.94Q255.43 247.32 254.74 248.28Q254.03 249.22 252.79 249.99L252.64 250.09L252.79 250.18Q256.26 252.48 256.26 255.31Q256.26 257.16 254.84 258.59Q253.42 260.02 251.42 260.19L250.40 260.19Q247.88 260.19 246.22 258.83ZM262.27 245.02Q261.95 244.70 261.95 244.30Q261.95 243.71 262.42 243.41Q264.64 242.00 267.40 242.00Q269.62 242.00 271.11 243.36Q272.62 244.70 272.62 246.88Q272.62 247.74 272.30 248.54Q271.99 249.36 271.57 249.88Q271.18 250.39 270.40 251.02Q269.62 251.66 269.20 251.94Q268.81 252.22 267.96 252.76Q267.03 253.34 266.62 253.65Q266.20 253.95 265.61 254.56Q265.03 255.15 264.76 255.90Q264.49 256.63 264.44 257.63L264.44 257.75L271.67 257.75Q272.13 257.75 272.45 258.08Q272.77 258.38 272.77 258.80Q272.77 259.23 272.43 259.55Q272.11 259.86 271.67 259.86L263.32 259.86Q262.88 259.86 262.54 259.55Q262.22 259.23 262.22 258.80L262.22 258.31Q262.22 256.48 262.47 255.69Q262.88 254.28 264.03 253.18Q265.18 252.06 266.84 250.98Q269.13 249.50 269.74 248.66Q270.42 247.81 270.42 246.88Q270.42 245.63 269.52 244.86Q268.67 244.11 267.40 244.11Q265.20 244.11 263.69 245.14Q263.42 245.33 263.05 245.33Q262.61 245.33 262.27 245.02ZM279.05 259.30Q278.54 258.92 278.54 258.36Q278.54 257.91 278.86 257.61Q279.20 257.28 279.64 257.28Q279.78 257.28 280.05 257.38Q281.61 258.05 283.32 258.05Q285.18 258.05 286.45 257.16Q287.74 256.25 287.84 254.52L287.84 254.28Q287.84 253.09 287.06 252.24Q286.33 251.42 285.25 251.07Q284.20 250.74 282.91 250.74Q282.49 250.74 282.18 250.44Q281.86 250.11 281.86 249.66Q281.86 249.24 282.08 249.01L286.57 244.23L279.71 244.23Q279.27 244.23 278.93 243.92Q278.61 243.59 278.61 243.15Q278.61 242.70 278.93 242.40Q279.25 242.10 279.71 242.10L288.33 242.10Q288.77 242.10 289.08 242.42Q289.43 242.73 289.43 243.15L289.43 243.99Q289.43 244.37 289.08 244.70L285.15 248.84L285.35 248.89Q287.42 249.41 288.74 250.79Q290.04 252.17 290.04 254.26L290.04 254.63Q289.91 257.19 287.96 258.69Q286.06 260.19 283.32 260.19Q282.64 260.19 281.96 260.12Q281.27 260.05 280.42 259.88Q279.56 259.70 279.05 259.30ZM296.61 247.49Q296.29 247.16 296.29 246.74Q296.29 246.24 296.61 246.01L301.08 242.33Q301.40 242.07 301.79 242.07L302.57 242.07Q303.01 242.07 303.33 242.40Q303.67 242.70 303.67 243.13L303.67 259.06Q303.67 259.48 303.33 259.81Q303.01 260.12 302.57 260.12Q302.13 260.12 301.79 259.81Q301.47 259.51 301.47 259.06L301.47 244.79L298.13 247.53Q297.81 247.79 297.39 247.79Q296.93 247.79 296.61 247.49ZM314.25 258.66Q312.61 257.14 312.54 254.63L312.54 254.35Q312.54 251.42 314.22 248.75Q314.91 247.65 315.88 246.43Q316.83 245.19 317.49 244.46Q318.15 243.71 319.37 242.38Q319.64 242.07 320.13 242.07Q320.55 242.07 320.86 242.40Q321.18 242.70 321.18 243.13Q321.18 243.52 320.91 243.85Q318.15 246.85 316.86 248.66L316.69 248.89L316.96 248.84Q317.66 248.70 318.40 248.70Q321.06 248.70 322.64 250.30Q324.26 251.91 324.26 254.63Q324.26 257.09 322.60 258.64Q320.94 260.19 318.40 260.19Q315.86 260.19 314.25 258.66M315.71 251.84Q314.74 252.85 314.74 254.63Q314.74 256.23 315.76 257.16Q316.76 258.08 318.40 258.08Q320.01 258.08 321.01 257.14Q322.06 256.20 322.06 254.63Q322.06 252.81 321.11 251.82Q320.18 250.81 318.40 250.81Q316.66 250.81 315.71 251.84ZM330.49 259.88Q330.17 259.58 330.17 259.13Q330.17 258.66 330.49 258.36Q330.83 258.05 331.27 258.05Q336.20 258.05 337.64 255.41Q338.08 254.61 338.08 253.88Q338.08 252.17 337.25 251.31Q336.15 250.06 333.40 250.06Q332.64 250.06 331.86 250.13L331.76 250.13Q331.32 250.13 330.98 249.85Q330.66 249.55 330.66 249.13L330.66 249.06L331.00 243.08Q331.05 242.66 331.34 242.38Q331.66 242.10 332.10 242.10L339.03 242.10Q339.50 242.10 339.82 242.42Q340.13 242.73 340.13 243.15Q340.13 243.57 339.79 243.90Q339.47 244.23 339.03 244.23L333.13 244.23L332.93 247.91L333.40 247.91Q336.50 247.91 338.38 249.43Q340.28 250.93 340.28 253.88Q340.28 255.13 339.72 256.20Q339.13 257.30 338.25 258.08Q335.91 260.19 331.27 260.19Q330.83 260.19 330.49 259.88M331.83 250.13Q331.83 250.13 331.86 250.13Q331.86 250.13 331.83 250.13ZM346.86 255.73Q346.54 255.43 346.54 254.98L346.54 253.98Q346.54 253.79 346.66 253.53L351.86 242.68Q351.96 242.42 352.23 242.26Q352.49 242.07 352.79 242.07Q353.23 242.07 353.54 242.40Q353.86 242.70 353.86 243.13Q353.86 243.36 353.74 243.57L348.86 253.93L353.62 253.93L353.62 251.09Q353.62 250.67 353.93 250.37Q354.25 250.04 354.67 250.04Q355.08 250.04 355.40 250.37Q355.74 250.67 355.74 251.09L355.74 253.93L357.16 253.93Q357.62 253.93 357.94 254.26Q358.26 254.56 358.26 254.98Q358.26 255.41 357.91 255.73Q357.60 256.04 357.16 256.04L355.74 256.04L355.74 259.06Q355.74 259.48 355.40 259.79Q355.08 260.12 354.67 260.12Q354.25 260.12 353.93 259.81Q353.62 259.48 353.62 259.06L353.62 256.04L347.64 256.04Q347.20 256.04 346.86 255.73ZM364.49 259.88Q364.17 259.58 364.17 259.13Q364.17 258.66 364.49 258.36Q364.83 258.05 365.27 258.05Q370.20 258.05 371.64 255.41Q372.08 254.61 372.08 253.88Q372.08 252.17 371.25 251.31Q370.15 250.06 367.40 250.06Q366.64 250.06 365.86 250.13L365.76 250.13Q365.32 250.13 364.98 249.85Q364.66 249.55 364.66 249.13L364.66 249.06L365.00 243.08Q365.05 242.66 365.34 242.38Q365.66 242.10 366.10 242.10L373.03 242.10Q373.50 242.10 373.82 242.42Q374.13 242.73 374.13 243.15Q374.13 243.57 373.79 243.90Q373.47 244.23 373.03 244.23L367.13 244.23L366.93 247.91L367.40 247.91Q370.50 247.91 372.38 249.43Q374.28 250.93 374.28 253.88Q374.28 255.13 373.72 256.20Q373.13 257.30 372.25 258.08Q369.91 260.19 365.27 260.19Q364.83 260.19 364.49 259.88M365.83 250.13Q365.83 250.13 365.86 250.13Q365.86 250.13 365.83 250.13ZM383.03 259.20Q381.61 258.03 381.37 256.23L381.37 256.04Q381.37 255.57 381.69 255.24Q382.03 254.89 382.47 254.89Q382.88 254.89 383.20 255.17Q383.52 255.45 383.57 255.88Q383.71 256.93 384.52 257.49Q385.27 258.05 386.27 258.05Q387.45 258.05 388.35 257.30Q389.23 256.65 389.23 255.27Q389.23 254.70 389.06 254.23Q388.89 253.79 388.55 253.46Q388.23 253.13 387.96 252.95Q387.69 252.73 387.23 252.50Q386.89 252.31 386.18 251.96Q385.49 251.59 385.08 251.35Q384.66 251.09 384.03 250.72Q383.39 250.32 383.03 249.95Q382.64 249.55 382.25 249.01Q381.88 248.47 381.69 247.79Q381.51 247.13 381.51 246.31Q381.51 244.39 382.98 243.15Q384.44 241.88 386.37 241.84L386.52 241.84Q388.25 241.84 389.47 242.75Q390.74 243.67 391.16 245.24Q391.21 245.42 391.21 245.52Q391.21 245.99 390.89 246.34Q390.57 246.67 390.11 246.67Q389.64 246.67 389.38 246.36Q389.08 246.03 388.86 245.54Q388.62 244.98 388.37 244.74Q387.72 244.13 386.54 244.13Q385.44 244.13 384.59 244.72Q383.71 245.31 383.71 246.29Q383.71 247.34 384.22 247.91Q384.69 248.47 385.57 248.94Q385.96 249.20 386.81 249.62Q387.67 250.06 388.13 250.34Q388.62 250.60 389.35 251.14Q390.06 251.66 390.45 252.20Q390.86 252.71 391.13 253.51Q391.43 254.31 391.43 255.27Q391.43 257.26 390.18 258.62Q388.94 259.98 387.10 260.30Q386.67 260.37 386.23 260.37Q384.44 260.37 383.03 259.20ZM403.49 260.19L403.40 260.19Q401.96 260.16 400.88 259.72Q399.81 259.30 399.17 258.62Q398.54 257.91 398.17 256.81Q397.78 255.71 397.66 254.59Q397.54 253.48 397.54 251.98Q397.54 250.65 397.56 249.71Q397.61 248.75 397.76 247.65Q397.90 246.52 398.15 245.77Q398.42 245.00 398.86 244.23Q399.30 243.48 399.91 243.03Q400.52 242.59 401.40 242.31Q402.27 242.02 403.40 242.02Q404.50 242.02 405.37 242.31Q406.25 242.59 406.86 243.03Q407.47 243.48 407.94 244.23Q408.38 245.00 408.62 245.77Q408.89 246.55 409.04 247.65Q409.18 248.75 409.21 249.71Q409.26 250.67 409.26 251.98Q409.26 252.92 409.21 253.70Q409.16 254.45 408.99 255.34Q408.84 256.23 408.60 256.91Q408.35 257.56 407.89 258.20Q407.42 258.83 406.84 259.25Q406.25 259.67 405.40 259.93Q404.54 260.19 403.49 260.19M399.74 250.06L399.74 251.98Q399.74 253.04 399.78 253.79Q399.86 254.54 400.08 255.41Q400.27 256.27 400.66 256.81Q401.05 257.38 401.74 257.75Q402.42 258.10 403.40 258.10L403.91 258.10Q404.59 258.10 405.13 257.84Q405.67 257.56 405.98 257.05Q406.33 256.55 406.55 255.99Q406.77 255.41 406.86 254.68Q406.99 253.93 407.01 253.32Q407.06 252.71 407.06 251.98L407.06 250.91Q407.06 250.18 407.03 249.76Q407.03 249.31 407.01 248.66Q406.99 247.98 406.91 247.60Q406.84 247.20 406.72 246.67Q406.59 246.13 406.40 245.80Q406.20 245.47 405.94 245.12Q405.64 244.77 405.30 244.58Q404.93 244.37 404.45 244.25Q403.98 244.13 403.40 244.13Q402.79 244.13 402.30 244.27Q401.83 244.39 401.47 244.63Q401.10 244.86 400.81 245.21Q400.54 245.54 400.35 245.96Q400.15 246.36 400.03 246.85Q399.91 247.32 399.86 247.86Q399.81 248.38 399.76 248.94Q399.74 249.48 399.74 250.06ZM414.86 259.53Q414.54 259.18 414.54 258.69L414.54 243.27Q414.54 242.75 414.86 242.40Q415.17 242.07 415.64 242.07L419.71 242.07Q420.59 242.07 421.10 242.10Q421.62 242.14 422.35 242.31Q423.06 242.49 423.59 242.80Q424.67 243.45 425.28 244.60Q425.89 245.75 425.89 247.09Q425.89 249.20 424.47 250.51L424.38 250.60L424.47 250.70Q425.30 251.40 425.77 252.43Q426.26 253.46 426.26 254.59L426.26 254.63Q426.26 255.80 425.77 256.86Q425.30 257.89 424.42 258.62Q423.52 259.34 422.37 259.60Q421.23 259.86 419.71 259.86L415.64 259.86Q415.20 259.86 414.86 259.53M416.74 251.75L416.74 257.49L419.71 257.47Q424.06 257.47 424.06 254.56L424.06 254.54Q424.03 253.09 422.98 252.41Q421.98 251.75 420.40 251.75L416.74 251.75M416.74 244.39L416.74 249.38L420.40 249.41Q423.72 249.41 423.72 247.09L423.72 246.83Q423.64 246.06 423.30 245.56Q422.98 245.05 422.40 244.79Q421.81 244.56 421.20 244.49Q420.59 244.39 419.71 244.39L416.74 244.39Z" fill="#000000" />
</svg>
