<svg viewBox="0 0 966 279" xmlns="http://www.w3.org/2000/svg">
<rect width="100%" height="100%" fill="#FFFFFF" />
<path stroke="#000000" stroke-width="6" d="M21 240L21 18M87 240L87 18M99 240L99 18M108 240L108 18M120 240L120 18M159 240L159 18M186 240L186 18M237 240L237 18M273 240L273 18M297 240L297 18M339 240L339 18M375 240L375 18M384 240L384 18M399 240L399 18M408 240L408 18M417 240L417 18M450 240L450 18M483 240L483 18M561 240L561 18M606 240L606 18M615 240L615 18M657 240L657 18M681 240L681 18M714 240L714 18M747 240L747 18M801 240L801 18M834 240L834 18M870 240L870 18M879 240L879 18M912 240L912 18M945 240L945 18" />
<path stroke="#000000" stroke-width="3" d="M28.50 240L28.50 18M67.50 240L67.50 18M130.50 240L130.50 18M142.50 240L142.50 18M151.50 240L151.50 18M175.50 240L175.50 18M199.50 240L199.50 18M217.50 240L217.50 18M229.50 240L229.50 18M250.50 240L250.50 18M256.50 240L256.50 18M283.50 240L283.50 18M310.50 240L310.50 18M316.50 240L316.50 18M349.50 240L349.50 18M427.50 240L427.50 18M439.50 240L439.50 18M460.50 240L460.50 18M493.50 240L493.50 18M505.50 240L505.50 18M514.50 240L514.50 18M547.50 240L547.50 18M580.50 240L580.50 18M640.50 240L640.50 18M646.50 240L646.50 18M706.50 240L706.50 18M727.50 240L727.50 18M760.50 240L760.50 18M772.50 240L772.50 18M778.50 240L778.50 18M811.50 240L811.50 18M844.50 240L844.50 18M886.50 240L886.50 18M898.50 240L898.50 18M937.50 240L937.50 18" />
<path stroke="#000000" stroke-width="9" d="M40.50 240L40.50 18M76.50 240L76.50 18M208.50 240L208.50 18M328.50 240L328.50 18M361.50 240L361.50 18M472.50 240L472.50 18M538.50 240L538.50 18M571.50 240L571.50 18M595.50 240L595.50 18M625.50 240L625.50 18M667.50 240L667.50 18M691.50 240L691.50 18M736.50 240L736.50 18M790.50 240L790.50 18M823.50 240L823.50 18M856.50 240L856.50 18M928.50 240L928.50 18" />
<path stroke="#000000" stroke-width="12" d="M57 240L57 18M525 240L525 18" />
<path d="M134.15 251.31L134.15 251.16Q134.22 245.54 139.23 242.19Q139.50 242.00 139.84 242.00Q140.28 242.00 140.60 242.31Q140.94 242.61 140.94 243.06Q140.94 243.59 140.45 243.92Q138.55 245.12 137.47 246.85Q136.37 248.61 136.35 251.16L136.35 251.28Q136.35 255.73 140.45 258.24Q140.94 258.57 140.94 259.13Q140.94 259.58 140.60 259.88Q140.28 260.19 139.84 260.19Q139.50 260.19 139.23 260.02Q134.15 256.74 134.15 251.31ZM153.49 260.19L153.40 260.19Q151.96 260.16 150.88 259.72Q149.81 259.30 149.17 258.62Q148.54 257.91 148.17 256.81Q147.78 255.71 147.66 254.59Q147.54 253.48 147.54 251.98Q147.54 250.65 147.56 249.71Q147.61 248.75 147.76 247.65Q147.90 246.52 148.15 245.77Q148.42 245.00 148.86 244.23Q149.30 243.48 149.91 243.03Q150.52 242.59 151.40 242.31Q152.27 242.02 153.40 242.02Q154.50 242.02 155.37 242.31Q156.25 242.59 156.86 243.03Q157.47 243.48 157.94 244.23Q158.38 245.00 158.62 245.77Q158.89 246.55 159.04 247.65Q159.18 248.75 159.21 249.71Q159.26 250.67 159.26 251.98Q159.26 252.92 159.21 253.70Q159.16 254.45 158.99 255.34Q158.84 256.23 158.60 256.91Q158.35 257.56 157.89 258.20Q157.42 258.83 156.84 259.25Q156.25 259.67 155.40 259.93Q154.54 260.19 153.49 260.19M149.74 250.06L149.74 251.98Q149.74 253.04 149.78 253.79Q149.86 254.54 150.08 255.41Q150.27 256.27 150.66 256.81Q151.05 257.38 151.74 257.75Q152.42 258.10 153.40 258.10L153.91 258.10Q154.59 258.10 155.13 257.84Q155.67 257.56 155.98 257.05Q156.33 256.55 156.55 255.99Q156.77 255.41 156.86 254.68Q156.99 253.93 157.01 253.32Q157.06 252.71 157.06 251.98L157.06 250.91Q157.06 250.18 157.03 249.76Q157.03 249.31 157.01 248.66Q156.99 247.98 156.91 247.60Q156.84 247.20 156.72 246.67Q156.59 246.13 156.40 245.80Q156.20 245.47 155.94 245.12Q155.64 244.77 155.30 244.58Q154.93 244.37 154.45 244.25Q153.98 244.13 153.40 244.13Q152.79 244.13 152.30 244.27Q151.83 244.39 151.47 244.63Q151.10 244.86 150.81 245.21Q150.54 245.54 150.35 245.96Q150.15 246.36 150.03 246.85Q149.91 247.32 149.86 247.86Q149.81 248.38 149.76 248.94Q149.74 249.48 149.74 250.06ZM165.61 247.49Q165.29 247.16 165.29 246.74Q165.29 246.24 165.61 246.01L170.08 242.33Q170.40 242.07 170.79 242.07L171.57 242.07Q172.01 242.07 172.33 242.40Q172.67 242.70 172.67 243.13L172.67 259.06Q172.67 259.48 172.33 259.81Q172.01 260.12 171.57 260.12Q171.13 260.12 170.79 259.81Q170.47 259.51 170.47 259.06L170.47 244.79L167.13 247.53Q166.81 247.79 166.39 247.79Q165.93 247.79 165.61 247.49ZM183.32 259.13Q183.32 258.57 183.81 258.24Q187.93 255.66 187.93 251.16Q187.93 246.62 183.81 243.92L183.78 243.90Q183.61 243.85 183.47 243.57Q183.32 243.29 183.32 243.06Q183.32 242.63 183.64 242.33Q183.98 242.00 184.42 242.00Q184.76 242.00 185.03 242.19Q190.13 245.56 190.13 251.16Q190.13 256.70 185.03 260.02Q184.76 260.19 184.42 260.19Q183.98 260.19 183.64 259.88Q183.32 259.55 183.32 259.13ZM199.61 247.49Q199.29 247.16 199.29 246.74Q199.29 246.24 199.61 246.01L204.08 242.33Q204.40 242.07 204.79 242.07L205.57 242.07Q206.01 242.07 206.33 242.40Q206.67 242.70 206.67 243.13L206.67 259.06Q206.67 259.48 206.33 259.81Q206.01 260.12 205.57 260.12Q205.13 260.12 204.79 259.81Q204.47 259.51 204.47 259.06L204.47 244.79L201.13 247.53Q200.81 247.79 200.39 247.79Q199.93 247.79 199.61 247.49ZM221.49 260.19L221.40 260.19Q219.96 260.16 218.88 259.72Q217.81 259.30 217.17 258.62Q216.54 257.91 216.17 256.81Q215.78 255.71 215.66 254.59Q215.54 253.48 215.54 251.98Q215.54 250.65 215.56 249.71Q215.61 248.75 215.76 247.65Q215.90 246.52 216.15 245.77Q216.42 245.00 216.86 244.23Q217.30 243.48 217.91 243.03Q218.52 242.59 219.40 242.31Q220.27 242.02 221.40 242.02Q222.50 242.02 223.37 242.31Q224.25 242.59 224.86 243.03Q225.47 243.48 225.94 244.23Q226.38 245.00 226.62 245.77Q226.89 246.55 227.04 247.65Q227.18 248.75 227.21 249.71Q227.26 250.67 227.26 251.98Q227.26 252.92 227.21 253.70Q227.16 254.45 226.99 255.34Q226.84 256.23 226.60 256.91Q226.35 257.56 225.89 258.20Q225.42 258.83 224.84 259.25Q224.25 259.67 223.40 259.93Q222.54 260.19 221.49 260.19M217.74 250.06L217.74 251.98Q217.74 253.04 217.78 253.79Q217.86 254.54 218.08 255.41Q218.27 256.27 218.66 256.81Q219.05 257.38 219.74 257.75Q220.42 258.10 221.40 258.10L221.91 258.10Q222.59 258.10 223.13 257.84Q223.67 257.56 223.98 257.05Q224.33 256.55 224.55 255.99Q224.77 255.41 224.86 254.68Q224.99 253.93 225.01 253.32Q225.06 252.71 225.06 251.98L225.06 250.91Q225.06 250.18 225.03 249.76Q225.03 249.31 225.01 248.66Q224.99 247.98 224.91 247.60Q224.84 247.20 224.72 246.67Q224.59 246.13 224.40 245.80Q224.20 245.47 223.94 245.12Q223.64 244.77 223.30 244.58Q222.93 244.37 222.45 244.25Q221.98 244.13 221.40 244.13Q220.79 244.13 220.30 244.27Q219.83 244.39 219.47 244.63Q219.10 244.86 218.81 245.21Q218.54 245.54 218.35 245.96Q218.15 246.36 218.03 246.85Q217.91 247.32 217.86 247.86Q217.81 248.38 217.76 248.94Q217.74 249.48 217.74 250.06ZM232.86 243.92Q232.54 243.59 232.54 243.15Q232.54 242.70 232.86 242.40Q233.17 242.10 233.64 242.10L243.16 242.10Q243.62 242.10 243.94 242.42Q244.26 242.73 244.26 243.15Q244.26 244.93 242.82 247.02Q242.38 247.67 241.11 249.20Q239.84 250.74 239.30 251.70Q237.71 254.52 237.71 259.04Q237.71 259.48 237.40 259.81Q237.08 260.12 236.66 260.12Q236.25 260.12 235.93 259.81Q235.61 259.51 235.61 259.04Q235.61 253.93 237.47 250.63Q238.03 249.66 239.30 248.05Q240.59 246.41 241.01 245.80Q241.59 244.86 241.81 244.39L241.86 244.23L233.64 244.23Q233.20 244.23 232.86 243.92ZM255.49 260.19L255.40 260.19Q253.96 260.16 252.88 259.72Q251.81 259.30 251.17 258.62Q250.54 257.91 250.17 256.81Q249.78 255.71 249.66 254.59Q249.54 253.48 249.54 251.98Q249.54 250.65 249.56 249.71Q249.61 248.75 249.76 247.65Q249.90 246.52 250.15 245.77Q250.42 245.00 250.86 244.23Q251.30 243.48 251.91 243.03Q252.52 242.59 253.40 242.31Q254.27 242.02 255.40 242.02Q256.50 242.02 257.37 242.31Q258.25 242.59 258.86 243.03Q259.47 243.48 259.94 244.23Q260.38 245.00 260.62 245.77Q260.89 246.55 261.04 247.65Q261.18 248.75 261.21 249.71Q261.26 250.67 261.26 251.98Q261.26 252.92 261.21 253.70Q261.16 254.45 260.99 255.34Q260.84 256.23 260.60 256.91Q260.35 257.56 259.89 258.20Q259.42 258.83 258.84 259.25Q258.25 259.67 257.40 259.93Q256.54 260.19 255.49 260.19M251.74 250.06L251.74 251.98Q251.74 253.04 251.78 253.79Q251.86 254.54 252.08 255.41Q252.27 256.27 252.66 256.81Q253.05 257.38 253.74 257.75Q254.42 258.10 255.40 258.10L255.91 258.10Q256.59 258.10 257.13 257.84Q257.67 257.56 257.98 257.05Q258.33 256.55 258.55 255.99Q258.77 255.41 258.86 254.68Q258.99 253.93 259.01 253.32Q259.06 252.71 259.06 251.98L259.06 250.91Q259.06 250.18 259.03 249.76Q259.03 249.31 259.01 248.66Q258.99 247.98 258.91 247.60Q258.84 247.20 258.72 246.67Q258.59 246.13 258.40 245.80Q258.20 245.47 257.94 245.12Q257.64 244.77 257.30 244.58Q256.93 244.37 256.45 244.25Q255.98 244.13 255.40 244.13Q254.79 244.13 254.30 244.27Q253.83 244.39 253.47 244.63Q253.10 244.86 252.81 245.21Q252.54 245.54 252.35 245.96Q252.15 246.36 252.03 246.85Q251.91 247.32 251.86 247.86Q251.81 248.38 251.76 248.94Q251.74 249.48 251.74 250.06ZM267.49 259.88Q267.17 259.58 267.17 259.13Q267.17 258.66 267.49 258.36Q267.83 258.05 268.27 258.05Q273.20 258.05 274.64 255.41Q275.08 254.61 275.08 253.88Q275.08 252.17 274.25 251.31Q273.15 250.06 270.40 250.06Q269.64 250.06 268.86 250.13L268.76 250.13Q268.32 250.13 267.98 249.85Q267.66 249.55 267.66 249.13L267.66 249.06L268.00 243.08Q268.05 242.66 268.34 242.38Q268.66 242.10 269.10 242.10L276.03 242.10Q276.50 242.10 276.82 242.42Q277.13 242.73 277.13 243.15Q277.13 243.57 276.79 243.90Q276.47 244.23 276.03 244.23L270.13 244.23L269.93 247.91L270.40 247.91Q273.50 247.91 275.38 249.43Q277.28 250.93 277.28 253.88Q277.28 255.13 276.72 256.20Q276.13 257.30 275.25 258.08Q272.91 260.19 268.27 260.19Q267.83 260.19 267.49 259.88M268.83 250.13Q268.83 250.13 268.86 250.13Q268.86 250.13 268.83 250.13ZM289.49 260.19L289.40 260.19Q287.96 260.16 286.88 259.72Q285.81 259.30 285.17 258.62Q284.54 257.91 284.17 256.81Q283.78 255.71 283.66 254.59Q283.54 253.48 283.54 251.98Q283.54 250.65 283.56 249.71Q283.61 248.75 283.76 247.65Q283.90 246.52 284.15 245.77Q284.42 245.00 284.86 244.23Q285.30 243.48 285.91 243.03Q286.52 242.59 287.40 242.31Q288.27 242.02 289.40 242.02Q290.50 242.02 291.37 242.31Q292.25 242.59 292.86 243.03Q293.47 243.48 293.94 244.23Q294.38 245.00 294.62 245.77Q294.89 246.55 295.04 247.65Q295.18 248.75 295.21 249.71Q295.26 250.67 295.26 251.98Q295.26 252.92 295.21 253.70Q295.16 254.45 294.99 255.34Q294.84 256.23 294.60 256.91Q294.35 257.56 293.89 258.20Q293.42 258.83 292.84 259.25Q292.25 259.67 291.40 259.93Q290.54 260.19 289.49 260.19M285.74 250.06L285.74 251.98Q285.74 253.04 285.78 253.79Q285.86 254.54 286.08 255.41Q286.27 256.27 286.66 256.81Q287.05 257.38 287.74 257.75Q288.42 258.10 289.40 258.10L289.91 258.10Q290.59 258.10 291.13 257.84Q291.67 257.56 291.98 257.05Q292.33 256.55 292.55 255.99Q292.77 255.41 292.86 254.68Q292.99 253.93 293.01 253.32Q293.06 252.71 293.06 251.98L293.06 250.91Q293.06 250.18 293.03 249.76Q293.03 249.31 293.01 248.66Q292.99 247.98 292.91 247.60Q292.84 247.20 292.72 246.67Q292.59 246.13 292.40 245.80Q292.20 245.47 291.94 245.12Q291.64 244.77 291.30 244.58Q290.93 244.37 290.45 244.25Q289.98 244.13 289.40 244.13Q288.79 244.13 288.30 244.27Q287.83 244.39 287.47 244.63Q287.10 244.86 286.81 245.21Q286.54 245.54 286.35 245.96Q286.15 246.36 286.03 246.85Q285.91 247.32 285.86 247.86Q285.81 248.38 285.76 248.94Q285.74 249.48 285.74 250.06ZM301.05 259.30Q300.54 258.92 300.54 258.36Q300.54 257.91 300.86 257.61Q301.20 257.28 301.64 257.28Q301.78 257.28 302.05 257.38Q303.61 258.05 305.32 258.05Q307.18 258.05 308.45 257.16Q309.74 256.25 309.84 254.52L309.84 254.28Q309.84 253.09 309.06 252.24Q308.33 251.42 307.25 251.07Q306.20 250.74 304.91 250.74Q304.49 250.74 304.18 250.44Q303.86 250.11 303.86 249.66Q303.86 249.24 304.08 249.01L308.57 244.23L301.71 244.23Q301.27 244.23 300.93 243.92Q300.61 243.59 300.61 243.15Q300.61 242.70 300.93 242.40Q301.25 242.10 301.71 242.10L310.33 242.10Q310.77 242.10 311.08 242.42Q311.43 242.73 311.43 243.15L311.43 243.99Q311.43 244.37 311.08 244.70L307.15 248.84L307.35 248.89Q309.42 249.41 310.74 250.79Q312.04 252.17 312.04 254.26L312.04 254.63Q311.91 257.19 309.96 258.69Q308.06 260.19 305.32 260.19Q304.64 260.19 303.96 260.12Q303.27 260.05 302.42 259.88Q301.56 259.70 301.05 259.30ZM317.86 255.73Q317.54 255.43 317.54 254.98L317.54 253.98Q317.54 253.79 317.66 253.53L322.86 242.68Q322.96 242.42 323.23 242.26Q323.49 242.07 323.79 242.07Q324.23 242.07 324.54 242.40Q324.86 242.70 324.86 243.13Q324.86 243.36 324.74 243.57L319.86 253.93L324.62 253.93L324.62 251.09Q324.62 250.67 324.93 250.37Q325.25 250.04 325.67 250.04Q326.08 250.04 326.40 250.37Q326.74 250.67 326.74 251.09L326.74 253.93L328.16 253.93Q328.62 253.93 328.94 254.26Q329.26 254.56 329.26 254.98Q329.26 255.41 328.91 255.73Q328.60 256.04 328.16 256.04L326.74 256.04L326.74 259.06Q326.74 259.48 326.40 259.79Q326.08 260.12 325.67 260.12Q325.25 260.12 324.93 259.81Q324.62 259.48 324.62 259.06L324.62 256.04L318.64 256.04Q318.20 256.04 317.86 255.73ZM336.25 258.66Q334.61 257.14 334.54 254.63L334.54 254.35Q334.54 251.42 336.22 248.75Q336.91 247.65 337.88 246.43Q338.83 245.19 339.49 244.46Q340.15 243.71 341.37 242.38Q341.64 242.07 342.13 242.07Q342.55 242.07 342.86 242.40Q343.18 242.70 343.18 243.13Q343.18 243.52 342.91 243.85Q340.15 246.85 338.86 248.66L338.69 248.89L338.96 248.84Q339.66 248.70 340.40 248.70Q343.06 248.70 344.64 250.30Q346.26 251.91 346.26 254.63Q346.26 257.09 344.60 258.64Q342.94 260.19 340.40 260.19Q337.86 260.19 336.25 258.66M337.71 251.84Q336.74 252.85 336.74 254.63Q336.74 256.23 337.76 257.16Q338.76 258.08 340.40 258.08Q342.01 258.08 343.01 257.14Q344.06 256.20 344.06 254.63Q344.06 252.81 343.11 251.82Q342.18 250.81 340.40 250.81Q338.66 250.81 337.71 251.84ZM351.86 255.73Q351.54 255.43 351.54 254.98L351.54 253.98Q351.54 253.79 351.66 253.53L356.86 242.68Q356.96 242.42 357.23 242.26Q357.49 242.07 357.79 242.07Q358.23 242.07 358.54 242.40Q358.86 242.70 358.86 243.13Q358.86 243.36 358.74 243.57L353.86 253.93L358.62 253.93L358.62 251.09Q358.62 250.67 358.93 250.37Q359.25 250.04 359.67 250.04Q360.08 250.04 360.40 250.37Q360.74 250.67 360.74 251.09L360.74 253.93L362.16 253.93Q362.62 253.93 362.94 254.26Q363.26 254.56 363.26 254.98Q363.26 255.41 362.91 255.73Q362.60 256.04 362.16 256.04L360.74 256.04L360.74 259.06Q360.74 259.48 360.40 259.79Q360.08 260.12 359.67 260.12Q359.25 260.12 358.93 259.81Q358.62 259.48 358.62 259.06L358.62 256.04L352.64 256.04Q352.20 256.04 351.86 255.73ZM369.05 259.30Q368.54 258.92 368.54 258.36Q368.54 257.91 368.86 257.61Q369.20 257.28 369.64 257.28Q369.78 257.28 370.05 257.38Q371.61 258.05 373.32 258.05Q375.18 258.05 376.45 257.16Q377.74 256.25 377.84 254.52L377.84 254.28Q377.84 253.09 377.06 252.24Q376.33 251.42 375.25 251.07Q374.20 250.74 372.91 250.74Q372.49 250.74 372.18 250.44Q371.86 250.11 371.86 249.66Q371.86 249.24 372.08 249.01L376.57 244.23L369.71 244.23Q369.27 244.23 368.93 243.92Q368.61 243.59 368.61 243.15Q368.61 242.70 368.93 242.40Q369.25 242.10 369.71 242.10L378.33 242.10Q378.77 242.10 379.08 242.42Q379.43 242.73 379.43 243.15L379.43 243.99Q379.43 244.37 379.08 244.70L375.15 248.84L375.35 248.89Q377.42 249.41 378.74 250.79Q380.04 252.17 380.04 254.26L380.04 254.63Q379.91 257.19 377.96 258.69Q376.06 260.19 373.32 260.19Q372.64 260.19 371.96 260.12Q371.27 260.05 370.42 259.88Q369.56 259.70 369.05 259.30ZM389.49 244.58Q388.57 245.05 388.57 245.94Q388.57 246.52 388.78 246.97Q389.00 247.41 389.52 247.79Q390.01 248.14 390.32 248.33Q390.66 248.52 391.35 248.84L391.40 248.84L391.45 248.84Q392.13 248.54 392.47 248.35Q392.81 248.16 393.30 247.81Q393.79 247.44 394.01 246.99Q394.23 246.52 394.23 245.94Q394.23 245.05 393.30 244.58Q392.40 244.11 391.40 244.11Q390.40 244.11 389.49 244.58M391.40 251.26Q387.71 253.11 387.71 255.31Q387.71 256.63 388.81 257.35Q389.83 258.08 391.40 258.08L391.89 258.08Q393.18 258.08 394.11 257.26Q395.06 256.44 395.06 255.31Q395.06 253.09 391.49 251.26L391.45 251.21L391.40 251.26M387.22 258.83Q385.54 257.47 385.54 255.31Q385.54 252.48 389.00 250.18L389.15 250.09L389.00 249.99Q386.37 248.45 386.37 245.94Q386.37 244.23 387.93 243.13Q389.47 242.00 391.40 242.00Q393.30 242.00 394.86 243.13Q396.43 244.25 396.43 245.94Q396.43 247.32 395.74 248.28Q395.03 249.22 393.79 249.99L393.64 250.09L393.79 250.18Q397.26 252.48 397.26 255.31Q397.26 257.16 395.84 258.59Q394.42 260.02 392.42 260.19L391.40 260.19Q388.88 260.19 387.22 258.83ZM403.61 247.49Q403.29 247.16 403.29 246.74Q403.29 246.24 403.61 246.01L408.08 242.33Q408.40 242.07 408.79 242.07L409.57 242.07Q410.01 242.07 410.33 242.40Q410.67 242.70 410.67 243.13L410.67 259.06Q410.67 259.48 410.33 259.81Q410.01 260.12 409.57 260.12Q409.13 260.12 408.79 259.81Q408.47 259.51 408.47 259.06L408.47 244.79L405.13 247.53Q404.81 247.79 404.39 247.79Q403.93 247.79 403.61 247.49ZM421.25 258.66Q419.61 257.14 419.54 254.63L419.54 254.35Q419.54 251.42 421.22 248.75Q421.91 247.65 422.88 246.43Q423.83 245.19 424.49 244.46Q425.15 243.71 426.37 242.38Q426.64 242.07 427.13 242.07Q427.55 242.07 427.86 242.40Q428.18 242.70 428.18 243.13Q428.18 243.52 427.91 243.85Q425.15 246.85 423.86 248.66L423.69 248.89L423.96 248.84Q424.66 248.70 425.40 248.70Q428.06 248.70 429.64 250.30Q431.26 251.91 431.26 254.63Q431.26 257.09 429.60 258.64Q427.94 260.19 425.40 260.19Q422.86 260.19 421.25 258.66M422.71 251.84Q421.74 252.85 421.74 254.63Q421.74 256.23 422.76 257.16Q423.76 258.08 425.40 258.08Q427.01 258.08 428.01 257.14Q429.06 256.20 429.06 254.63Q429.06 252.81 428.11 251.82Q427.18 250.81 425.40 250.81Q423.66 250.81 422.71 251.84ZM440.15 251.31L440.15 251.16Q440.22 245.54 445.23 242.19Q445.50 242.00 445.84 242.00Q446.28 242.00 446.60 242.31Q446.94 242.61 446.94 243.06Q446.94 243.59 446.45 243.92Q444.55 245.12 443.47 246.85Q442.37 248.61 442.35 251.16L442.35 251.28Q442.35 255.73 446.45 258.24Q446.94 258.57 446.94 259.13Q446.94 259.58 446.60 259.88Q446.28 260.19 445.84 260.19Q445.50 260.19 445.23 260.02Q440.15 256.74 440.15 251.31ZM454.61 247.49Q454.29 247.16 454.29 246.74Q454.29 246.24 454.61 246.01L459.08 242.33Q459.40 242.07 459.79 242.07L460.57 242.07Q461.01 242.07 461.33 242.40Q461.67 242.70 461.67 243.13L461.67 259.06Q461.67 259.48 461.33 259.81Q461.01 260.12 460.57 260.12Q460.13 260.12 459.79 259.81Q459.47 259.51 459.47 259.06L459.47 244.79L456.13 247.53Q455.81 247.79 455.39 247.79Q454.93 247.79 454.61 247.49ZM470.86 243.92Q470.54 243.59 470.54 243.15Q470.54 242.70 470.86 242.40Q471.17 242.10 471.64 242.10L481.16 242.10Q481.62 242.10 481.94 242.42Q482.26 242.73 482.26 243.15Q482.26 244.93 480.82 247.02Q480.38 247.67 479.11 249.20Q477.84 250.74 477.30 251.70Q475.71 254.52 475.71 259.04Q475.71 259.48 475.40 259.81Q475.08 260.12 474.66 260.12Q474.25 260.12 473.93 259.81Q473.61 259.51 473.61 259.04Q473.61 253.93 475.47 250.63Q476.03 249.66 477.30 248.05Q478.59 246.41 479.01 245.80Q479.59 244.86 479.81 244.39L479.86 244.23L471.64 244.23Q471.20 244.23 470.86 243.92ZM489.32 259.13Q489.32 258.57 489.81 258.24Q493.93 255.66 493.93 251.16Q493.93 246.62 489.81 243.92L489.78 243.90Q489.61 243.85 489.47 243.57Q489.32 243.29 489.32 243.06Q489.32 242.63 489.64 242.33Q489.98 242.00 490.42 242.00Q490.76 242.00 491.03 242.19Q496.13 245.56 496.13 251.16Q496.13 256.70 491.03 260.02Q490.76 260.19 490.42 260.19Q489.98 260.19 489.64 259.88Q489.32 259.55 489.32 259.13ZM505.05 259.30Q504.54 258.92 504.54 258.36Q504.54 257.91 504.86 257.61Q505.20 257.28 505.64 257.28Q505.78 257.28 506.05 257.38Q507.61 258.05 509.32 258.05Q511.18 258.05 512.45 257.16Q513.74 256.25 513.84 254.52L513.84 254.28Q513.84 253.09 513.06 252.24Q512.33 251.42 511.25 251.07Q510.20 250.74 508.91 250.74Q508.49 250.74 508.18 250.44Q507.86 250.11 507.86 249.66Q507.86 249.24 508.08 249.01L512.57 244.23L505.71 244.23Q505.27 244.23 504.93 243.92Q504.61 243.59 504.61 243.15Q504.61 242.70 504.93 242.40Q505.25 242.10 505.71 242.10L514.33 242.10Q514.77 242.10 515.08 242.42Q515.43 242.73 515.43 243.15L515.43 243.99Q515.43 244.37 515.08 244.70L511.15 248.84L511.35 248.89Q513.42 249.41 514.74 250.79Q516.04 252.17 516.04 254.26L516.04 254.63Q515.91 257.19 513.96 258.69Q512.06 260.19 509.32 260.19Q508.64 260.19 507.96 260.12Q507.27 260.05 506.42 259.88Q505.56 259.70 505.05 259.30ZM522.27 245.02Q521.95 244.70 521.95 244.30Q521.95 243.71 522.42 243.41Q524.64 242.00 527.40 242.00Q529.62 242.00 531.11 243.36Q532.62 244.70 532.62 246.88Q532.62 247.74 532.30 248.54Q531.99 249.36 531.57 249.88Q531.18 250.39 530.40 251.02Q529.62 251.66 529.20 251.94Q528.81 252.22 527.96 252.76Q527.03 253.34 526.62 253.65Q526.20 253.95 525.61 254.56Q525.03 255.15 524.76 255.90Q524.49 256.63 524.44 257.63L524.44 257.75L531.67 257.75Q532.13 257.75 532.45 258.08Q532.77 258.38 532.77 258.80Q532.77 259.23 532.43 259.55Q532.11 259.86 531.67 259.86L523.32 259.86Q522.88 259.86 522.54 259.55Q522.22 259.23 522.22 258.80L522.22 258.31Q522.22 256.48 522.47 255.69Q522.88 254.28 524.03 253.18Q525.18 252.06 526.84 250.98Q529.13 249.50 529.74 248.66Q530.42 247.81 530.42 246.88Q530.42 245.63 529.52 244.86Q528.67 244.11 527.40 244.11Q525.20 244.11 523.69 245.14Q523.42 245.33 523.05 245.33Q522.61 245.33 522.27 245.02ZM539.61 247.49Q539.29 247.16 539.29 246.74Q539.29 246.24 539.61 246.01L544.08 242.33Q544.40 242.07 544.79 242.07L545.57 242.07Q546.01 242.07 546.33 242.40Q546.67 242.70 546.67 243.13L546.67 259.06Q546.67 259.48 546.33 259.81Q546.01 260.12 545.57 260.12Q545.13 260.12 544.79 259.81Q544.47 259.51 544.47 259.06L544.47 244.79L541.13 247.53Q540.81 247.79 540.39 247.79Q539.93 247.79 539.61 247.49ZM561.49 260.19L561.40 260.19Q559.96 260.16 558.88 259.72Q557.81 259.30 557.17 258.62Q556.54 257.91 556.17 256.81Q555.78 255.71 555.66 254.59Q555.54 253.48 555.54 251.98Q555.54 250.65 555.56 249.71Q555.61 248.75 555.76 247.65Q555.90 246.52 556.15 245.77Q556.42 245.00 556.86 244.23Q557.30 243.48 557.91 243.03Q558.52 242.59 559.40 242.31Q560.27 242.02 561.40 242.02Q562.50 242.02 563.37 242.31Q564.25 242.59 564.86 243.03Q565.47 243.48 565.94 244.23Q566.38 245.00 566.62 245.77Q566.89 246.55 567.04 247.65Q567.18 248.75 567.21 249.71Q567.26 250.67 567.26 251.98Q567.26 252.92 567.21 253.70Q567.16 254.45 566.99 255.34Q566.84 256.23 566.60 256.91Q566.35 257.56 565.89 258.20Q565.42 258.83 564.84 259.25Q564.25 259.67 563.40 259.93Q562.54 260.19 561.49 260.19M557.74 250.06L557.74 251.98Q557.74 253.04 557.78 253.79Q557.86 254.54 558.08 255.41Q558.27 256.27 558.66 256.81Q559.05 257.38 559.74 257.75Q560.42 258.10 561.40 258.10L561.91 258.10Q562.59 258.10 563.13 257.84Q563.67 257.56 563.98 257.05Q564.33 256.55 564.55 255.99Q564.77 255.41 564.86 254.68Q564.99 253.93 565.01 253.32Q565.06 252.71 565.06 251.98L565.06 250.91Q565.06 250.18 565.03 249.76Q565.03 249.31 565.01 248.66Q564.99 247.98 564.91 247.60Q564.84 247.20 564.72 246.67Q564.59 246.13 564.40 245.80Q564.20 245.47 563.94 245.12Q563.64 244.77 563.30 244.58Q562.93 244.37 562.45 244.25Q561.98 244.13 561.40 244.13Q560.79 244.13 560.30 244.27Q559.83 244.39 559.47 244.63Q559.10 244.86 558.81 245.21Q558.54 245.54 558.35 245.96Q558.15 246.36 558.03 246.85Q557.91 247.32 557.86 247.86Q557.81 248.38 557.76 248.94Q557.74 249.48 557.74 250.06ZM573.27 245.02Q572.95 244.70 572.95 244.30Q572.95 243.71 573.42 243.41Q575.64 242.00 578.40 242.00Q580.62 242.00 582.11 243.36Q583.62 244.70 583.62 246.88Q583.62 247.74 583.30 248.54Q582.99 249.36 582.57 249.88Q582.18 250.39 581.40 251.02Q580.62 251.66 580.20 251.94Q579.81 252.22 578.96 252.76Q578.03 253.34 577.62 253.65Q577.20 253.95 576.61 254.56Q576.03 255.15 575.76 255.90Q575.49 256.63 575.44 257.63L575.44 257.75L582.67 257.75Q583.13 257.75 583.45 258.08Q583.77 258.38 583.77 258.80Q583.77 259.23 583.43 259.55Q583.11 259.86 582.67 259.86L574.32 259.86Q573.88 259.86 573.54 259.55Q573.22 259.23 573.22 258.80L573.22 258.31Q573.22 256.48 573.47 255.69Q573.88 254.28 575.03 253.18Q576.18 252.06 577.84 250.98Q580.13 249.50 580.74 248.66Q581.42 247.81 581.42 246.88Q581.42 245.63 580.52 244.86Q579.67 244.11 578.40 244.11Q576.20 244.11 574.69 245.14Q574.42 245.33 574.05 245.33Q573.61 245.33 573.27 245.02ZM595.49 260.19L595.40 260.19Q593.96 260.16 592.88 259.72Q591.81 259.30 591.17 258.62Q590.54 257.91 590.17 256.81Q589.78 255.71 589.66 254.59Q589.54 253.48 589.54 251.98Q589.54 250.65 589.56 249.71Q589.61 248.75 589.76 247.65Q589.90 246.52 590.15 245.77Q590.42 245.00 590.86 244.23Q591.30 243.48 591.91 243.03Q592.52 242.59 593.40 242.31Q594.27 242.02 595.40 242.02Q596.50 242.02 597.37 242.31Q598.25 242.59 598.86 243.03Q599.47 243.48 599.94 244.23Q600.38 245.00 600.62 245.77Q600.89 246.55 601.04 247.65Q601.18 248.75 601.21 249.71Q601.26 250.67 601.26 251.98Q601.26 252.92 601.21 253.70Q601.16 254.45 600.99 255.34Q600.84 256.23 600.60 256.91Q600.35 257.56 599.89 258.20Q599.42 258.83 598.84 259.25Q598.25 259.67 597.40 259.93Q596.54 260.19 595.49 260.19M591.74 250.06L591.74 251.98Q591.74 253.04 591.78 253.79Q591.86 254.54 592.08 255.41Q592.27 256.27 592.66 256.81Q593.05 257.38 593.74 257.75Q594.42 258.10 595.40 258.10L595.91 258.10Q596.59 258.10 597.13 257.84Q597.67 257.56 597.98 257.05Q598.33 256.55 598.55 255.99Q598.77 255.41 598.86 254.68Q598.99 253.93 599.01 253.32Q599.06 252.71 599.06 251.98L599.06 250.91Q599.06 250.18 599.03 249.76Q599.03 249.31 599.01 248.66Q598.99 247.98 598.91 247.60Q598.84 247.20 598.72 246.67Q598.59 246.13 598.40 245.80Q598.20 245.47 597.94 245.12Q597.64 244.77 597.30 244.58Q596.93 244.37 596.45 244.25Q595.98 244.13 595.40 244.13Q594.79 244.13 594.30 244.27Q593.83 244.39 593.47 244.63Q593.10 244.86 592.81 245.21Q592.54 245.54 592.35 245.96Q592.15 246.36 592.03 246.85Q591.91 247.32 591.86 247.86Q591.81 248.38 591.76 248.94Q591.74 249.48 591.74 250.06ZM610.15 251.31L610.15 251.16Q610.22 245.54 615.23 242.19Q615.50 242.00 615.84 242.00Q616.28 242.00 616.60 242.31Q616.94 242.61 616.94 243.06Q616.94 243.59 616.45 243.92Q614.55 245.12 613.47 246.85Q612.37 248.61 612.35 251.16L612.35 251.28Q612.35 255.73 616.45 258.24Q616.94 258.57 616.94 259.13Q616.94 259.58 616.60 259.88Q616.28 260.19 615.84 260.19Q615.50 260.19 615.23 260.02Q610.15 256.74 610.15 251.31ZM624.61 247.49Q624.29 247.16 624.29 246.74Q624.29 246.24 624.61 246.01L629.08 242.33Q629.40 242.07 629.79 242.07L630.57 242.07Q631.01 242.07 631.33 242.40Q631.67 242.70 631.67 243.13L631.67 259.06Q631.67 259.48 631.33 259.81Q631.01 260.12 630.57 260.12Q630.13 260.12 629.79 259.81Q629.47 259.51 629.47 259.06L629.47 244.79L626.13 247.53Q625.81 247.79 625.39 247.79Q624.93 247.79 624.61 247.49ZM646.49 260.19L646.40 260.19Q644.96 260.16 643.88 259.72Q642.81 259.30 642.17 258.62Q641.54 257.91 641.17 256.81Q640.78 255.71 640.66 254.59Q640.54 253.48 640.54 251.98Q640.54 250.65 640.56 249.71Q640.61 248.75 640.76 247.65Q640.90 246.52 641.15 245.77Q641.42 245.00 641.86 244.23Q642.30 243.48 642.91 243.03Q643.52 242.59 644.40 242.31Q645.27 242.02 646.40 242.02Q647.50 242.02 648.37 242.31Q649.25 242.59 649.86 243.03Q650.47 243.48 650.94 244.23Q651.38 245.00 651.62 245.77Q651.89 246.55 652.04 247.65Q652.18 248.75 652.21 249.71Q652.26 250.67 652.26 251.98Q652.26 252.92 652.21 253.70Q652.16 254.45 651.99 255.34Q651.84 256.23 651.60 256.91Q651.35 257.56 650.89 258.20Q650.42 258.83 649.84 259.25Q649.25 259.67 648.40 259.93Q647.54 260.19 646.49 260.19M642.74 250.06L642.74 251.98Q642.74 253.04 642.78 253.79Q642.86 254.54 643.08 255.41Q643.27 256.27 643.66 256.81Q644.05 257.38 644.74 257.75Q645.42 258.10 646.40 258.10L646.91 258.10Q647.59 258.10 648.13 257.84Q648.67 257.56 648.98 257.05Q649.33 256.55 649.55 255.99Q649.77 255.41 649.86 254.68Q649.99 253.93 650.01 253.32Q650.06 252.71 650.06 251.98L650.06 250.91Q650.06 250.18 650.03 249.76Q650.03 249.31 650.01 248.66Q649.99 247.98 649.91 247.60Q649.84 247.20 649.72 246.67Q649.59 246.13 649.40 245.80Q649.20 245.47 648.94 245.12Q648.64 244.77 648.30 244.58Q647.93 244.37 647.45 244.25Q646.98 244.13 646.40 244.13Q645.79 244.13 645.30 244.27Q644.83 244.39 644.47 244.63Q644.10 244.86 643.81 245.21Q643.54 245.54 643.35 245.96Q643.15 246.36 643.03 246.85Q642.91 247.32 642.86 247.86Q642.81 248.38 642.76 248.94Q642.74 249.48 642.74 250.06ZM659.32 259.13Q659.32 258.57 659.81 258.24Q663.93 255.66 663.93 251.16Q663.93 246.62 659.81 243.92L659.78 243.90Q659.61 243.85 659.47 243.57Q659.32 243.29 659.32 243.06Q659.32 242.63 659.64 242.33Q659.98 242.00 660.42 242.00Q660.76 242.00 661.03 242.19Q666.13 245.56 666.13 251.16Q666.13 256.70 661.03 260.02Q660.76 260.19 660.42 260.19Q659.98 260.19 659.64 259.88Q659.32 259.55 659.32 259.13ZM675.56 259.39Q675.22 259.04 675.22 258.57L675.22 242.99Q675.22 242.52 675.54 242.19Q675.88 241.84 676.32 241.84Q676.76 241.84 677.08 242.19Q677.42 242.52 677.42 242.99L677.42 257.40L685.16 257.40Q685.62 257.40 685.94 257.75Q686.26 258.10 686.26 258.57Q686.26 259.04 685.91 259.39Q685.60 259.74 685.16 259.74L676.32 259.74Q675.88 259.74 675.56 259.39ZM692.03 254.38Q691.61 252.73 691.61 251.07L691.61 251.00Q691.61 249.74 691.81 248.47Q692.03 247.18 692.49 245.99Q692.95 244.77 693.66 243.85Q694.32 242.94 695.30 242.40Q696.25 241.84 697.40 241.84Q698.69 241.84 699.79 242.63Q700.91 243.41 701.64 244.72Q702.38 246.03 702.77 247.67Q703.18 249.29 703.18 251.00L703.18 251.07Q703.18 252.73 702.77 254.38Q702.38 255.99 701.67 257.35Q700.94 258.69 699.81 259.51Q698.72 260.33 697.40 260.33Q696.10 260.33 695.00 259.51Q693.88 258.69 693.15 257.35Q692.44 255.99 692.03 254.38M694.00 248.82Q693.81 249.95 693.81 250.98L693.81 251.07Q693.81 252.15 694.03 253.30Q694.25 254.45 694.66 255.50Q695.08 256.60 695.79 257.30Q696.52 258.03 697.40 258.03Q698.28 258.03 699.01 257.30Q699.72 256.60 700.13 255.50Q700.55 254.45 700.77 253.30Q700.99 252.13 700.99 251.07Q700.99 249.92 700.77 248.75Q700.57 247.58 700.16 246.52Q699.74 245.47 699.03 244.79Q698.30 244.11 697.40 244.11Q696.49 244.11 695.74 244.81Q695.03 245.52 694.64 246.62Q694.22 247.67 694.00 248.82ZM708.88 244.20Q708.54 243.85 708.54 243.36Q708.54 242.87 708.86 242.52Q709.17 242.19 709.64 242.19L719.16 242.19Q719.62 242.19 719.94 242.54Q720.26 242.89 720.26 243.38Q720.26 243.85 719.91 244.20Q719.60 244.56 719.16 244.56L715.45 244.56L715.45 259.09Q715.45 259.55 715.13 259.91Q714.81 260.26 714.40 260.26Q713.98 260.26 713.66 259.93Q713.35 259.58 713.35 259.09L713.35 244.56L709.64 244.56Q709.20 244.56 708.88 244.20ZM725.66 251.42L725.66 250.77Q725.66 250.32 725.98 250.02Q726.29 249.71 726.76 249.71L736.52 249.71Q736.99 249.71 737.30 250.04Q737.62 250.34 737.62 250.77L737.62 251.42Q737.62 251.84 737.30 252.17Q736.99 252.48 736.52 252.48L726.76 252.48Q726.29 252.48 725.98 252.17Q725.66 251.87 725.66 251.42ZM742.88 244.20Q742.54 243.85 742.54 243.36Q742.54 242.87 742.86 242.52Q743.17 242.19 743.64 242.19L753.16 242.19Q753.62 242.19 753.94 242.54Q754.26 242.89 754.26 243.38Q754.26 243.85 753.91 244.20Q753.60 244.56 753.16 244.56L749.45 244.56L749.45 259.09Q749.45 259.55 749.13 259.91Q748.81 260.26 748.40 260.26Q747.98 260.26 747.66 259.93Q747.35 259.58 747.35 259.09L747.35 244.56L743.64 244.56Q743.20 244.56 742.88 244.20ZM760.83 259.93Q760.51 259.58 760.51 259.09L760.51 243.38Q760.51 242.87 760.83 242.52Q761.15 242.19 761.61 242.19L765.49 242.19Q766.52 242.21 767.37 242.45Q768.25 242.70 769.01 243.20Q769.74 243.69 770.16 244.60Q770.57 245.49 770.55 246.71Q770.52 248.94 769.74 250.30Q768.94 251.66 767.33 252.29L767.20 252.34L770.57 258.45Q770.69 258.69 770.69 259.09Q770.69 259.55 770.35 259.91Q770.04 260.26 769.60 260.26Q769.06 260.26 768.79 259.95L764.93 252.50L762.71 252.50L762.71 259.06Q762.71 259.55 762.37 259.91Q762.05 260.26 761.61 260.26Q761.17 260.26 760.83 259.93M762.71 244.42L762.71 250.16L765.40 250.11Q766.72 250.11 767.35 249.50Q767.98 248.91 768.23 248.26Q768.47 247.60 768.47 246.57Q768.47 245.45 767.57 244.93Q766.74 244.42 765.37 244.42L762.71 244.42ZM778.27 259.51Q777.93 259.16 777.93 258.69Q777.93 258.20 778.25 257.84Q778.56 257.52 779.03 257.52L781.37 257.52L781.37 244.49L779.52 244.49Q779.08 244.49 778.76 244.13Q778.42 243.78 778.42 243.31Q778.42 242.84 778.74 242.49Q779.05 242.14 779.52 242.14L785.28 242.14Q785.74 242.14 786.06 242.49Q786.38 242.84 786.38 243.31Q786.38 243.78 786.03 244.13Q785.72 244.49 785.28 244.49L783.42 244.49L783.42 257.52L785.77 257.52Q786.23 257.52 786.55 257.84Q786.86 258.20 786.86 258.69Q786.86 259.16 786.52 259.51Q786.21 259.86 785.77 259.86L779.03 259.86Q778.59 259.86 778.27 259.51ZM799.49 260.19L799.40 260.19Q797.96 260.16 796.88 259.72Q795.81 259.30 795.17 258.62Q794.54 257.91 794.17 256.81Q793.78 255.71 793.66 254.59Q793.54 253.48 793.54 251.98Q793.54 250.65 793.56 249.71Q793.61 248.75 793.76 247.65Q793.90 246.52 794.15 245.77Q794.42 245.00 794.86 244.23Q795.30 243.48 795.91 243.03Q796.52 242.59 797.40 242.31Q798.27 242.02 799.40 242.02Q800.50 242.02 801.37 242.31Q802.25 242.59 802.86 243.03Q803.47 243.48 803.94 244.23Q804.38 245.00 804.62 245.77Q804.89 246.55 805.04 247.65Q805.18 248.75 805.21 249.71Q805.26 250.67 805.26 251.98Q805.26 252.92 805.21 253.70Q805.16 254.45 804.99 255.34Q804.84 256.23 804.60 256.91Q804.35 257.56 803.89 258.20Q803.42 258.83 802.84 259.25Q802.25 259.67 801.40 259.93Q800.54 260.19 799.49 260.19M795.74 250.06L795.74 251.98Q795.74 253.04 795.78 253.79Q795.86 254.54 796.08 255.41Q796.27 256.27 796.66 256.81Q797.05 257.38 797.74 257.75Q798.42 258.10 799.40 258.10L799.91 258.10Q800.59 258.10 801.13 257.84Q801.67 257.56 801.98 257.05Q802.33 256.55 802.55 255.99Q802.77 255.41 802.86 254.68Q802.99 253.93 803.01 253.32Q803.06 252.71 803.06 251.98L803.06 250.91Q803.06 250.18 803.03 249.76Q803.03 249.31 803.01 248.66Q802.99 247.98 802.91 247.60Q802.84 247.20 802.72 246.67Q802.59 246.13 802.40 245.80Q802.20 245.47 801.94 245.12Q801.64 244.77 801.30 244.58Q800.93 244.37 800.45 244.25Q799.98 244.13 799.40 244.13Q798.79 244.13 798.30 244.27Q797.83 244.39 797.47 244.63Q797.10 244.86 796.81 245.21Q796.54 245.54 796.35 245.96Q796.15 246.36 796.03 246.85Q795.91 247.32 795.86 247.86Q795.81 248.38 795.76 248.94Q795.74 249.48 795.74 250.06ZM816.49 260.19L816.40 260.19Q814.96 260.16 813.88 259.72Q812.81 259.30 812.17 258.62Q811.54 257.91 811.17 256.81Q810.78 255.71 810.66 254.59Q810.54 253.48 810.54 251.98Q810.54 250.65 810.56 249.71Q810.61 248.75 810.76 247.65Q810.90 246.52 811.15 245.77Q811.42 245.00 811.86 244.23Q812.30 243.48 812.91 243.03Q813.52 242.59 814.40 242.31Q815.27 242.02 816.40 242.02Q817.50 242.02 818.37 242.31Q819.25 242.59 819.86 243.03Q820.47 243.48 820.94 244.23Q821.38 245.00 821.62 245.77Q821.89 246.55 822.04 247.65Q822.18 248.75 822.21 249.71Q822.26 250.67 822.26 251.98Q822.26 252.92 822.21 253.70Q822.16 254.45 821.99 255.34Q821.84 256.23 821.60 256.91Q821.35 257.56 820.89 258.20Q820.42 258.83 819.84 259.25Q819.25 259.67 818.40 259.93Q817.54 260.19 816.49 260.19M812.74 250.06L812.74 251.98Q812.74 253.04 812.78 253.79Q812.86 254.54 813.08 255.41Q813.27 256.27 813.66 256.81Q814.05 257.38 814.74 257.75Q815.42 258.10 816.40 258.10L816.91 258.10Q817.59 258.10 818.13 257.84Q818.67 257.56 818.98 257.05Q819.33 256.55 819.55 255.99Q819.77 255.41 819.86 254.68Q819.99 253.93 820.01 253.32Q820.06 252.71 820.06 251.98L820.06 250.91Q820.06 250.18 820.03 249.76Q820.03 249.31 820.01 248.66Q819.99 247.98 819.91 247.60Q819.84 247.20 819.72 246.67Q819.59 246.13 819.40 245.80Q819.20 245.47 818.94 245.12Q818.64 244.77 818.30 244.58Q817.93 244.37 817.45 244.25Q816.98 244.13 816.40 244.13Q815.79 244.13 815.30 244.27Q814.83 244.39 814.47 244.63Q814.10 244.86 813.81 245.21Q813.54 245.54 813.35 245.96Q813.15 246.36 813.03 246.85Q812.91 247.32 812.86 247.86Q812.81 248.38 812.76 248.94Q812.74 249.48 812.74 250.06ZM828.61 247.49Q828.29 247.16 828.29 246.74Q828.29 246.24 828.61 246.01L833.08 242.33Q833.40 242.07 833.79 242.07L834.57 242.07Q835.01 242.07 835.33 242.40Q835.67 242.70 835.67 243.13L835.67 259.06Q835.67 259.48 835.33 259.81Q835.01 260.12 834.57 260.12Q834.13 260.12 833.79 259.81Q833.47 259.51 833.47 259.06L833.47 244.79L830.13 247.53Q829.81 247.79 829.39 247.79Q828.93 247.79 828.61 247.49Z" fill="#000000" />
</svg>
