<svg viewBox="0 0 280 280" xmlns="http://www.w3.org/2000/svg">
<rect width="100%" height="100%" fill="#FFFFFF" />
<path d="M30 250L250 250L250 240L240 240L240 230L250 230L250 220L240 220L240 210L250 210L250 200L240 200L240 190L230 190L230 180L240 180L240 170L220 170L220 150L210 150L210 140L190 140L190 130L210 130L210 120L230 120L230 110L250 110L250 100L220 100L220 110L210 110L210 100L200 100L200 120L170 120L170 130L180 130L180 140L170 140L170 150L140 150L140 160L150 160L150 170L160 170L160 160L170 160L170 170L190 170L190 160L180 160L180 150L200 150L200 160L210 160L210 180L220 180L220 210L230 210L230 220L220 220L220 230L210 230L210 220L220 220L220 210L210 210L210 190L200 190L200 200L180 200L180 190L170 190L170 170L160 170L160 180L150 180L150 190L140 190L140 170L120 170L120 180L130 180L130 200L120 200L120 220L130 220L130 210L140 210L140 200L150 200L150 210L140 210L140 220L130 220L130 240L90 240L90 230L80 230L80 240L60 240L60 230L80 230L80 220L70 220L70 210L60 210L60 220L40 220L40 200L50 200L50 190L70 190L70 180L60 180L60 150L70 150L70 160L80 160L80 170L90 170L90 180L100 180L100 160L90 160L90 140L80 140L80 130L90 130L90 140L100 140L100 120L80 120L80 110L70 110L70 130L50 130L50 120L40 120L40 100L50 100L50 110L70 110L70 100L90 100L90 80L80 80L80 90L40 90L40 80L70 80L70 70L80 70L80 30L70 30L70 60L50 60L50 70L40 70L40 50L50 50L50 40L40 40L40 30L30 30ZM40 240L40 230L50 230L50 240ZM150 240L150 230L160 230L160 240ZM170 240L170 230L190 230L190 210L200 210L200 240ZM90 230L110 230L110 220L100 220L100 200L80 200L80 220L90 220ZM50 210L60 210L60 200L50 200ZM110 200L120 200L120 180L100 180L100 190L110 190ZM180 190L200 190L200 180L180 180ZM240 190L250 190L250 180L240 180ZM40 170L40 150L50 150L50 170ZM240 170L250 170L250 160L240 160ZM100 160L110 160L110 150L100 150ZM120 160L130 160L130 150L140 150L140 140L170 140L170 130L160 130L160 110L150 110L150 120L110 120L110 150L120 150ZM230 160L240 160L240 150L230 150ZM240 150L250 150L250 140L240 140ZM210 140L220 140L220 130L210 130ZM230 140L240 140L240 130L230 130ZM240 130L250 130L250 120L240 120ZM90 110L100 110L100 100L90 100ZM130 110L150 110L150 90L140 90L140 100L130 100ZM160 110L170 110L170 90L160 90ZM180 110L190 110L190 90L180 90ZM210 100L220 100L220 90L210 90ZM100 90L110 90L110 80L100 80ZM190 90L200 90L200 80L190 80ZM220 90L230 90L230 70L220 70ZM240 90L250 90L250 80L240 80ZM90 80L100 80L100 70L90 70ZM120 80L150 80L150 70L140 70L140 50L130 50L130 60L120 60ZM200 80L210 80L210 60L220 60L220 50L210 50L210 40L200 40ZM100 70L110 70L110 50L100 50ZM150 70L160 70L160 50L150 50ZM180 70L190 70L190 50L180 50L180 30L170 30L170 60L180 60ZM230 70L250 70L250 60L240 60L240 50L230 50ZM120 50L130 50L130 40L120 40ZM140 50L150 50L150 40L140 40ZM220 50L230 50L230 40L220 40ZM240 50L250 50L250 40L240 40ZM50 40L60 40L60 30L50 30ZM90 40L100 40L100 30L90 30ZM110 40L120 40L120 30L110 30ZM130 40L140 40L140 30L130 30ZM150 40L160 40L160 30L150 30ZM190 40L200 40L200 30L190 30ZM210 40L220 40L220 30L210 30ZM230 40L240 40L240 30L230 30Z" fill="#000000" fill-rule="evenodd" />
</svg>
